<?xml version="1.0" standalone="no"?>
<!DOCTYPE svg PUBLIC "-//W3C//DTD SVG 20010904//EN"
 "http://www.w3.org/TR/2001/REC-SVG-20010904/DTD/svg10.dtd">
<svg version="1.0" xmlns="http://www.w3.org/2000/svg"
 width="564.000000pt" height="564.000000pt" viewBox="0 0 564.000000 564.000000"
 preserveAspectRatio="xMidYMid meet">
<metadata>
Created by potrace 1.14, written by Peter Selinger 2001-2017
</metadata>
<g transform="translate(0.000000,564.000000) scale(0.100000,-0.100000)"
fill="#000000" stroke="none">
<path d="M2037 5578 c-50 -58 -85 -121 -58 -104 6 4 11 12 11 18 0 6 27 41 61
79 34 38 56 69 51 69 -6 0 -35 -28 -65 -62z"/>
<path d="M3957 5584 c57 -92 66 -104 38 -49 -14 28 -37 64 -51 80 -15 18 -9 5
13 -31z"/>
<path d="M4119 5631 c8 -5 12 -18 8 -31 -3 -12 -1 -34 4 -47 11 -31 6 -38 -18
-28 -10 5 -20 9 -23 9 -3 1 -11 5 -17 9 -7 5 -13 4 -13 -1 0 -9 51 -33 76 -36
14 -1 64 -60 64 -75 0 -6 6 -8 14 -5 21 8 64 -37 71 -75 6 -27 4 -32 -6 -25
-27 16 115 -138 160 -174 80 -63 78 -58 -11 26 -64 61 -94 98 -113 140 -14 31
-32 69 -40 85 -16 30 -10 34 19 12 11 -8 29 -15 40 -15 16 1 12 5 -13 16 -34
14 -34 14 -15 36 14 17 15 19 2 10 -30 -23 -84 -22 -106 2 -22 25 -66 115 -60
122 6 6 58 -61 58 -74 0 -12 34 -42 48 -42 25 0 10 33 -36 83 -27 29 -52 60
-55 70 -4 9 -16 17 -29 17 -17 0 -19 -3 -9 -9z"/>
<path d="M3035 5620 c-8 -13 15 -13 35 0 12 8 11 10 -7 10 -12 0 -25 -4 -28
-10z"/>
<path d="M4050 5585 c19 -19 36 -35 39 -35 3 0 -10 16 -29 35 -19 19 -36 35
-39 35 -3 0 10 -16 29 -35z"/>
<path d="M5028 5513 c7 -3 16 -2 19 1 4 3 -2 6 -13 5 -11 0 -14 -3 -6 -6z"/>
<path d="M5088 5513 c7 -3 16 -2 19 1 4 3 -2 6 -13 5 -11 0 -14 -3 -6 -6z"/>
<path d="M4598 5483 c7 -3 16 -2 19 1 4 3 -2 6 -13 5 -11 0 -14 -3 -6 -6z"/>
<path d="M4683 5483 c9 -2 23 -2 30 0 6 3 -1 5 -18 5 -16 0 -22 -2 -12 -5z"/>
<path d="M4155 5456 c10 -14 19 -26 22 -26 7 0 -17 39 -28 46 -6 3 -3 -5 6
-20z"/>
<path d="M2998 5458 c-16 -5 -28 -16 -28 -24 0 -21 16 -17 46 11 29 27 25 29
-18 13z"/>
<path d="M5448 5433 c7 -3 16 -2 19 1 4 3 -2 6 -13 5 -11 0 -14 -3 -6 -6z"/>
<path d="M3015 5390 c-49 -18 -71 -40 -40 -40 12 0 15 -6 10 -20 -4 -11 -2
-20 4 -20 6 0 11 5 11 10 0 6 16 18 35 27 40 19 46 33 13 26 -20 -4 -19 -2 5
12 26 15 35 26 20 24 -5 0 -30 -9 -58 -19z"/>
<path d="M4324 5383 c4 -4 31 -13 59 -19 29 -6 66 -14 82 -19 17 -4 27 -5 24
-1 -7 7 -142 46 -161 46 -6 0 -8 -3 -4 -7z"/>
<path d="M4210 5365 c0 -5 5 -17 10 -25 5 -8 10 -10 10 -5 0 6 -5 17 -10 25
-5 8 -10 11 -10 5z"/>
<path d="M1740 5312 c-28 -27 -50 -54 -50 -62 0 -7 13 6 30 28 16 23 43 48 60
57 31 16 38 25 20 25 -6 0 -33 -22 -60 -48z"/>
<path d="M3037 5279 c-32 -16 -55 -34 -52 -38 2 -5 -7 -12 -20 -15 -34 -9 -53
-49 -34 -72 13 -16 47 -15 94 1 13 5 7 -4 -15 -23 -40 -36 -29 -40 45 -17 27
8 52 12 56 9 5 -2 20 -2 34 2 17 4 23 9 15 14 -6 4 -11 10 -11 14 1 3 1 8 1
10 0 4 -25 -2 -75 -19 -11 -3 -3 3 18 15 37 20 53 48 20 36 -9 -4 -20 -1 -24
6 -7 10 -19 9 -60 -5 -60 -22 -79 -15 -23 7 59 24 69 32 67 55 -2 12 1 21 5
21 5 0 17 7 28 15 34 26 -6 16 -69 -16z"/>
<path d="M1707 5225 c-35 -21 -166 -156 -205 -212 -12 -17 -18 -34 -13 -37 5
-3 21 12 35 35 39 58 97 120 107 113 5 -3 9 2 9 12 0 13 3 14 15 4 17 -14 21
0 4 17 -8 8 0 19 31 42 54 39 69 40 62 4 -6 -35 2 -28 15 12 9 27 8 31 -8 31
-10 0 -34 -9 -52 -21z"/>
<path d="M4963 5183 c9 -2 23 -2 30 0 6 3 -1 5 -18 5 -16 0 -22 -2 -12 -5z"/>
<path d="M4780 5155 c0 -8 -5 -15 -12 -15 -6 0 -9 -2 -7 -5 3 -2 25 2 49 11
25 8 33 13 18 11 -16 -3 -28 0 -28 4 0 5 -4 9 -10 9 -5 0 -10 -7 -10 -15z"/>
<path d="M5047 5149 c7 -7 15 -10 18 -7 3 3 -2 9 -12 12 -14 6 -15 5 -6 -5z"/>
<path d="M5080 5136 c0 -3 9 -10 20 -16 11 -6 20 -8 20 -6 0 3 -9 10 -20 16
-11 6 -20 8 -20 6z"/>
<path d="M4574 5056 c26 -22 27 -24 10 -29 -14 -3 -12 -5 8 -6 15 0 38 -5 52
-11 17 -6 26 -6 26 0 0 6 -6 10 -13 10 -7 0 -35 14 -63 30 -39 24 -43 25 -20
6z"/>
<path d="M3120 5060 c-12 -8 -12 -10 5 -10 16 0 17 -2 5 -10 -8 -5 -12 -12 -8
-15 8 -8 58 24 58 36 0 12 -41 11 -60 -1z"/>
<path d="M1642 5027 c-28 -29 -29 -44 -2 -17 11 11 27 20 36 20 8 0 12 5 9 10
-9 15 -19 12 -43 -13z"/>
<path d="M4440 5028 c0 -22 62 -67 150 -109 72 -34 80 -30 13 6 -121 64 -144
81 -137 99 3 7 -2 13 -11 13 -8 0 -15 -4 -15 -9z"/>
<path d="M4480 5030 c0 -5 5 -10 10 -10 6 0 10 5 10 10 0 6 -4 10 -10 10 -5 0
-10 -4 -10 -10z"/>
<path d="M1473 4948 c-15 -20 -25 -38 -20 -38 3 0 12 11 21 25 17 26 16 35 -1
13z"/>
<path d="M4840 4926 c0 -2 8 -10 18 -17 15 -13 16 -12 3 4 -13 16 -21 21 -21
13z"/>
<path d="M5184 4915 c-3 -8 -4 -20 -2 -27 3 -7 7 -1 10 15 6 29 1 36 -8 12z"/>
<path d="M4810 4906 c0 -3 9 -10 20 -16 11 -6 20 -8 20 -6 0 3 -9 10 -20 16
-11 6 -20 8 -20 6z"/>
<path d="M4880 4896 c0 -2 8 -10 18 -17 15 -13 16 -12 3 4 -13 16 -21 21 -21
13z"/>
<path d="M5320 4877 c0 -3 7 -21 15 -40 8 -20 16 -53 16 -74 2 -33 3 -34 6 -9
5 32 -14 113 -28 122 -5 3 -9 3 -9 1z"/>
<path d="M1450 4855 c0 -8 4 -15 10 -15 5 0 7 7 4 15 -4 8 -8 15 -10 15 -2 0
-4 -7 -4 -15z"/>
<path d="M4717 4849 c7 -7 15 -10 18 -7 3 3 -2 9 -12 12 -14 6 -15 5 -6 -5z"/>
<path d="M3920 4845 c0 -11 33 -70 59 -105 36 -49 91 -111 91 -103 0 4 -13 21
-29 38 -52 55 -102 137 -96 156 4 13 1 19 -9 19 -9 0 -16 -2 -16 -5z"/>
<path d="M4462 4830 c7 -10 14 -18 15 -16 6 6 -9 36 -18 36 -5 0 -4 -9 3 -20z"/>
<path d="M4218 4823 c12 -8 22 -24 22 -34 0 -25 -20 -24 -27 1 -5 19 -23 29
-23 13 0 -12 11 -24 49 -58 28 -25 32 -26 22 -8 -21 41 -10 48 20 13 23 -27
27 -29 18 -10 -20 41 -73 100 -89 99 -10 0 -8 -5 8 -16z"/>
<path d="M4757 4830 c17 -22 73 -53 73 -41 0 6 -5 11 -11 11 -6 0 -25 10 -42
22 -18 12 -27 16 -20 8z"/>
<path d="M4956 4818 c16 -13 31 -26 32 -30 2 -5 8 -6 13 -2 5 3 -7 16 -26 30
-45 30 -57 31 -19 2z"/>
<path d="M1535 4765 c-3 -11 -17 -46 -30 -77 -13 -32 -21 -58 -19 -58 10 0 65
132 61 143 -3 7 -8 3 -12 -8z"/>
<path d="M1560 4750 c0 -16 2 -30 4 -30 2 0 6 14 8 30 3 17 1 30 -4 30 -4 0
-8 -13 -8 -30z"/>
<path d="M5000 4766 c0 -2 7 -7 16 -10 8 -3 12 -2 9 4 -6 10 -25 14 -25 6z"/>
<path d="M4885 4740 c10 -11 20 -20 23 -20 3 0 -3 9 -13 20 -10 11 -20 20 -23
20 -3 0 3 -9 13 -20z"/>
<path d="M5070 4750 c0 -6 7 -10 15 -10 8 0 15 2 15 4 0 2 -7 6 -15 10 -8 3
-15 1 -15 -4z"/>
<path d="M1410 4726 c28 -17 50 -21 35 -7 -6 5 -21 12 -35 15 l-25 7 25 -15z"/>
<path d="M4576 4733 c-3 -3 -6 -15 -6 -25 0 -25 25 -23 27 2 2 21 -10 34 -21
23z"/>
<path d="M5118 4728 c5 -5 16 -8 23 -6 8 3 3 7 -10 11 -17 4 -21 3 -13 -5z"/>
<path d="M1452 4701 c-13 -38 -3 -48 15 -15 15 31 17 44 4 44 -5 0 -14 -13
-19 -29z"/>
<path d="M5523 4695 c0 -22 2 -30 4 -17 2 12 2 30 0 40 -3 9 -5 -1 -4 -23z"/>
<path d="M4985 4650 c27 -27 51 -50 54 -50 3 0 -17 23 -44 50 -27 28 -51 50
-54 50 -3 0 17 -22 44 -50z"/>
<path d="M4358 4658 c25 -27 120 -98 109 -82 -3 6 -34 32 -69 59 -35 27 -53
37 -40 23z"/>
<path d="M3840 4660 c0 -5 4 -10 8 -10 4 0 35 -23 67 -51 33 -28 74 -60 90
-71 l30 -21 -25 24 c-104 99 -170 149 -170 129z"/>
<path d="M1415 4650 c-3 -6 1 -7 9 -4 18 7 21 14 7 14 -6 0 -13 -4 -16 -10z"/>
<path d="M3172 4640 c0 -14 2 -19 5 -12 2 6 2 18 0 25 -3 6 -5 1 -5 -13z"/>
<path d="M3721 4636 c-1 -29 36 -102 47 -92 3 3 -3 15 -13 26 -10 11 -21 37
-25 58 -7 33 -8 34 -9 8z"/>
<path d="M3651 4633 c-1 -14 21 -45 60 -85 l61 -63 -50 60 c-28 33 -55 71 -61
85 -9 24 -10 24 -10 3z"/>
<path d="M4910 4625 c16 -20 103 -51 181 -65 35 -7 119 -11 186 -11 78 1 124
-2 128 -9 5 -8 11 -7 21 1 8 6 16 10 19 8 10 -10 -68 -51 -112 -59 l-48 -9 55
5 c30 3 64 7 75 7 15 2 23 -7 30 -30 5 -18 13 -33 17 -33 9 0 -8 48 -23 66
-15 18 9 28 29 12 15 -12 16 -11 4 4 -26 32 -5 41 87 35 52 -3 76 -2 61 3 -14
4 -49 8 -78 9 -49 1 -52 2 -42 20 17 32 11 36 -11 7 -29 -37 -73 -35 -118 7
-33 31 -35 21 -2 -16 14 -17 10 -18 -101 -16 -64 1 -133 5 -154 9 -77 16 -156
41 -177 55 -27 19 -43 19 -27 0z"/>
<path d="M1374 4608 c-10 -13 -12 -17 -4 -10 18 16 38 16 22 0 -17 -17 -15
-33 3 -18 18 15 19 7 4 -23 -9 -19 -7 -18 10 3 11 14 15 27 10 31 -5 3 -7 13
-3 22 9 25 -19 21 -42 -5z"/>
<path d="M1435 4619 c-4 -6 -5 -12 -2 -15 2 -3 7 2 10 11 7 17 1 20 -8 4z"/>
<path d="M1446 4575 c-9 -14 -23 -37 -32 -52 l-16 -28 20 24 c24 29 55 81 49
81 -3 0 -12 -11 -21 -25z"/>
<path d="M2091 4573 c0 -10 9 -43 19 -73 14 -40 18 -45 14 -20 -12 79 -35 142
-33 93z"/>
<path d="M1352 4558 c-7 -7 -12 -19 -12 -28 0 -9 -13 -29 -30 -45 -16 -16 -30
-34 -30 -39 1 -18 90 87 90 106 0 21 -2 22 -18 6z"/>
<path d="M4520 4530 c41 -36 201 -143 278 -186 38 -21 52 -34 48 -46 -6 -25
12 -35 79 -43 33 -5 79 -16 102 -26 22 -9 44 -15 47 -12 3 4 6 -1 6 -10 0 -9
6 -17 13 -17 20 0 157 -45 157 -52 0 -4 -10 -9 -22 -11 -13 -3 0 -3 28 -1 45
3 52 1 62 -19 9 -19 11 -20 11 -3 1 15 6 17 32 12 17 -3 38 -6 45 -6 8 0 14
-7 14 -15 0 -8 -5 -15 -12 -15 -6 0 -9 -3 -5 -6 3 -3 -5 -25 -19 -47 -14 -23
-29 -53 -34 -67 -7 -17 -30 -34 -71 -53 -77 -35 -85 -31 -13 7 30 16 54 32 54
37 0 4 -21 -5 -47 -21 -27 -16 -78 -39 -115 -50 -38 -12 -68 -23 -68 -25 0 -2
15 -3 33 -2 17 0 46 -2 62 -6 21 -5 24 -5 10 2 -18 7 -16 9 15 19 19 6 50 15
68 21 34 10 35 5 4 -32 -8 -9 -13 -20 -9 -23 3 -3 19 14 36 38 17 23 35 48 41
55 5 7 10 17 10 22 0 5 16 37 35 70 19 32 35 64 35 70 0 6 19 12 43 13 l42 1
-38 4 c-30 3 -37 8 -33 20 3 8 9 25 12 37 4 18 21 28 77 45 40 13 81 26 92 31
19 8 19 9 -1 9 -12 1 -37 -5 -55 -13 -19 -7 -48 -16 -66 -19 -29 -6 -32 -4
-36 21 l-4 27 -2 -27 c-1 -22 -6 -28 -23 -29 -22 0 -22 -1 -3 -9 11 -5 18 -9
15 -9 -3 -1 -38 -12 -78 -26 l-74 -25 -71 21 c-40 12 -75 24 -79 28 -4 3 55 6
130 5 135 -1 136 -1 32 5 l-105 6 53 14 c29 7 51 15 49 18 -3 2 -33 -3 -68
-12 -66 -17 -102 -16 -154 6 -30 12 -30 12 35 24 l65 12 -102 -4 c-101 -4
-103 -3 -174 32 -80 41 -261 152 -359 221 -41 29 -52 34 -30 14z m386 -245
c16 -12 17 -14 2 -15 -23 0 -48 11 -48 21 0 14 24 11 46 -6z m544 -109 c0 -3
-4 -16 -10 -30 -10 -27 -36 -32 -90 -17 -22 6 -19 9 30 28 57 23 70 26 70 19z"/>
<path d="M1375 4522 c-21 -15 -34 -49 -23 -60 8 -8 7 -13 -5 -17 -46 -14 -52
-17 -39 -22 21 -8 14 -23 -45 -86 l-57 -62 55 53 c30 29 58 49 62 45 4 -4 10
3 14 15 3 12 10 19 15 15 6 -3 8 0 6 8 -3 8 6 26 20 42 25 26 19 40 -6 15 -18
-18 -16 7 4 37 17 26 16 30 -1 17z"/>
<path d="M4053 4513 c-16 -6 -7 -15 72 -73 33 -24 94 -76 136 -116 42 -40 87
-77 100 -84 21 -10 22 -9 7 2 -62 51 -127 112 -123 116 2 3 -11 17 -29 31 -19
14 -60 49 -93 77 -32 28 -64 49 -70 47z"/>
<path d="M3892 4460 c0 -19 2 -27 5 -17 2 9 2 25 0 35 -3 9 -5 1 -5 -18z"/>
<path d="M1420 4473 c8 -4 21 -13 28 -22 11 -14 11 -13 2 7 -6 12 -18 22 -28
21 -14 0 -14 -2 -2 -6z"/>
<path d="M5537 4449 c12 -12 24 -21 27 -18 2 2 -8 13 -22 23 l-27 19 22 -24z"/>
<path d="M1384 4434 c-18 -15 -18 -15 2 -5 12 6 24 7 28 4 3 -3 6 -1 6 5 0 16
-12 15 -36 -4z"/>
<path d="M2133 4364 c0 -43 2 -69 5 -56 2 12 8 20 13 17 8 -5 4 38 -7 73 -2 6
4 12 14 13 14 0 14 2 2 6 -8 3 -18 11 -22 16 -4 6 -6 -25 -5 -69z"/>
<path d="M5462 4390 c0 -19 2 -27 5 -17 2 9 2 25 0 35 -3 9 -5 1 -5 -18z"/>
<path d="M5578 4410 c19 -22 15 -26 -33 -40 -25 -7 -43 -15 -41 -18 3 -2 27 3
53 12 30 10 49 13 51 6 6 -17 18 -11 18 10 0 11 -5 19 -11 16 -5 -2 -19 4 -30
13 -12 9 -15 10 -7 1z"/>
<path d="M1385 4400 c3 -5 8 -10 11 -10 2 0 4 5 4 10 0 6 -5 10 -11 10 -5 0
-7 -4 -4 -10z"/>
<path d="M2460 4391 c0 -6 4 -13 10 -16 6 -3 7 1 4 9 -7 18 -14 21 -14 7z"/>
<path d="M2180 4383 c0 -5 9 -18 20 -28 11 -10 20 -15 20 -11 0 4 -9 16 -20
28 -11 12 -20 17 -20 11z"/>
<path d="M5460 4340 c0 -5 7 -7 15 -4 8 4 15 8 15 10 0 2 -7 4 -15 4 -8 0 -15
-4 -15 -10z"/>
<path d="M3427 4290 c3 -11 14 -20 24 -20 12 0 19 7 19 20 0 14 -7 20 -24 20
-19 0 -23 -4 -19 -20z"/>
<path d="M3820 4301 c0 -7 21 -33 46 -59 l46 -47 -38 50 c-53 70 -54 71 -54
56z"/>
<path d="M5338 4303 c7 -3 16 -2 19 1 4 3 -2 6 -13 5 -11 0 -14 -3 -6 -6z"/>
<path d="M2520 4275 c14 -37 12 -48 -6 -41 -10 4 -14 1 -12 -6 3 -7 10 -13 17
-13 6 0 16 -7 21 -15 8 -12 10 -12 10 -1 0 26 38 -17 95 -108 6 -9 15 -19 20
-23 6 -5 6 -8 -2 -8 -6 0 -20 12 -31 27 -11 16 -23 25 -27 21 -12 -12 27 -71
95 -142 37 -39 53 -62 38 -53 -39 24 -57 21 -31 -4 11 -12 34 -22 50 -23 20
-1 50 -18 87 -48 116 -95 239 -149 335 -147 31 1 43 4 26 5 -125 15 -232 57
-327 131 -77 59 -188 163 -188 175 0 6 -10 18 -22 29 -20 16 -20 18 -6 19 23
0 127 -91 122 -107 -2 -7 13 -20 33 -28 21 -9 40 -19 43 -23 4 -5 116 -64 173
-90 4 -2 7 0 7 5 0 4 -20 16 -45 26 -24 10 -43 24 -42 30 1 5 -12 13 -30 17
-37 8 -113 63 -163 116 -19 21 -30 35 -25 32 6 -4 17 -3 24 1 9 6 2 12 -25 21
-42 13 -54 25 -116 114 -35 51 -38 58 -19 53 11 -3 19 -1 15 4 -3 5 -14 9 -25
9 -11 0 -18 4 -15 9 3 5 -10 21 -29 35 l-35 27 10 -26z"/>
<path d="M5467 4293 c-4 -3 -7 -11 -7 -17 0 -6 5 -5 12 2 6 6 9 14 7 17 -3 3
-9 2 -12 -2z"/>
<path d="M3307 4263 c9 -25 43 -80 43 -70 0 11 -39 87 -45 87 -2 0 -1 -8 2
-17z"/>
<path d="M5198 4273 c6 -2 18 -2 25 0 6 3 1 5 -13 5 -14 0 -19 -2 -12 -5z"/>
<path d="M1169 4253 c-13 -16 -12 -17 4 -4 9 7 17 15 17 17 0 8 -8 3 -21 -13z"/>
<path d="M4085 4240 c-48 -25 -60 -28 -73 -18 -14 12 -14 10 -1 -9 16 -27 22
-28 40 -7 17 21 60 42 106 53 31 7 33 9 12 10 -15 1 -53 -13 -84 -29z"/>
<path d="M5355 4255 c-39 -14 -40 -14 -5 -8 41 7 82 22 60 22 -8 0 -33 -7 -55
-14z"/>
<path d="M4201 4257 c2 -1 15 -11 29 -22 l25 -20 -19 23 c-11 12 -24 22 -29
22 -6 0 -8 -1 -6 -3z"/>
<path d="M2250 4241 c0 -6 4 -13 10 -16 6 -3 7 1 4 9 -7 18 -14 21 -14 7z"/>
<path d="M4537 4228 c-2 -7 0 -26 4 -43 12 -41 -2 -49 -45 -25 -20 12 -36 20
-36 17 0 -3 19 -16 41 -29 l41 -23 -5 -75 c-3 -41 -2 -65 1 -52 4 13 12 23 17
24 6 0 8 5 6 12 -11 31 -12 64 -2 70 7 4 11 -1 11 -12 0 -11 7 -44 16 -73 9
-30 18 -60 20 -68 3 -8 7 -12 9 -9 3 2 -4 38 -14 79 -10 41 -17 76 -16 78 2 1
27 -5 55 -14 28 -9 53 -15 56 -13 2 3 -23 13 -56 23 -54 16 -60 21 -66 50 -3
17 -5 38 -3 46 5 32 -24 65 -34 37z"/>
<path d="M2077 4209 c4 -13 8 -18 11 -10 2 7 -1 18 -6 23 -8 8 -9 4 -5 -13z"/>
<path d="M1064 4179 c-48 -38 -54 -45 -29 -31 25 14 82 61 74 62 -3 0 -24 -14
-45 -31z"/>
<path d="M2211 4168 c-1 -29 3 -48 10 -48 8 0 8 -5 -1 -15 -10 -12 -9 -15 4
-15 9 0 24 -16 33 -35 9 -19 20 -35 25 -35 5 0 -1 19 -13 43 -13 23 -30 67
-40 97 l-18 55 0 -47z"/>
<path d="M4261 4194 c0 -11 3 -14 6 -6 3 7 2 16 -1 19 -3 4 -6 -2 -5 -13z"/>
<path d="M3593 4190 c-70 -6 -93 -13 -81 -26 9 -8 168 18 168 28 0 4 -3 7 -7
7 -5 -1 -41 -5 -80 -9z"/>
<path d="M2310 4140 c6 -11 13 -20 16 -20 2 0 0 9 -6 20 -6 11 -13 20 -16 20
-2 0 0 -9 6 -20z"/>
<path d="M3379 4120 c26 -58 34 -61 15 -7 -9 26 -20 47 -24 47 -5 0 -1 -18 9
-40z"/>
<path d="M3665 4146 c-30 -22 -13 -29 54 -21 61 7 85 25 34 25 -16 0 -37 3
-48 6 -11 3 -29 -2 -40 -10z"/>
<path d="M2566 4114 c-4 -11 -1 -21 9 -26 8 -5 13 -13 10 -18 -3 -6 4 -20 15
-32 l21 -23 -21 55 c-26 66 -26 65 -34 44z"/>
<path d="M1400 4101 c0 -5 5 -13 10 -16 6 -3 10 -2 10 4 0 5 -4 13 -10 16 -5
3 -10 2 -10 -4z"/>
<path d="M5543 4093 c15 -2 39 -2 55 0 15 2 2 4 -28 4 -30 0 -43 -2 -27 -4z"/>
<path d="M5310 4074 c-25 -7 -74 -14 -110 -14 -36 -1 -83 -5 -105 -9 l-40 -9
50 0 c28 -1 84 3 125 7 41 4 77 5 80 2 11 -13 42 -12 38 1 -3 7 2 18 11 25 21
16 7 15 -49 -3z"/>
<path d="M4998 4073 c7 -3 16 -2 19 1 4 3 -2 6 -13 5 -11 0 -14 -3 -6 -6z"/>
<path d="M2189 4056 c7 -8 21 -12 33 -8 21 5 21 6 2 13 -33 13 -48 11 -35 -5z"/>
<path d="M3460 4063 c0 -7 23 -36 51 -65 l51 -53 -43 55 c-58 75 -59 76 -59
63z"/>
<path d="M4718 4063 c7 -3 16 -2 19 1 4 3 -2 6 -13 5 -11 0 -14 -3 -6 -6z"/>
<path d="M5068 4063 c7 -3 16 -2 19 1 4 3 -2 6 -13 5 -11 0 -14 -3 -6 -6z"/>
<path d="M5543 4063 c9 -2 23 -2 30 0 6 3 -1 5 -18 5 -16 0 -22 -2 -12 -5z"/>
<path d="M4763 4053 c9 -2 23 -2 30 0 6 3 -1 5 -18 5 -16 0 -22 -2 -12 -5z"/>
<path d="M1645 4040 c-3 -6 1 -7 9 -4 9 3 16 1 16 -5 0 -6 5 -11 11 -11 8 0 8
5 -1 15 -14 17 -26 19 -35 5z"/>
<path d="M4876 4039 c3 -5 38 -9 77 -8 85 1 79 6 -15 12 -38 3 -65 1 -62 -4z"/>
<path d="M2140 4026 c0 -2 7 -6 15 -10 8 -3 15 -1 15 4 0 6 -7 10 -15 10 -8 0
-15 -2 -15 -4z"/>
<path d="M3420 4024 c0 -6 7 -19 16 -30 14 -18 14 -18 3 6 -14 31 -19 36 -19
24z"/>
<path d="M4464 3995 c-7 -39 1 -94 21 -143 16 -36 17 -48 5 -45 -5 1 -4 -14 2
-34 9 -33 6 -125 -7 -223 -4 -27 -3 -29 3 -10 8 25 8 25 20 -9 7 -19 15 -32
18 -28 3 3 1 14 -5 25 -12 23 -15 252 -3 252 4 0 27 -26 50 -58 23 -32 59 -74
80 -93 l37 -34 -36 40 c-48 54 -129 171 -129 189 0 7 -7 19 -14 26 -8 6 -20
36 -26 66 -9 44 -9 59 4 84 12 25 12 30 1 30 -8 0 -17 -15 -21 -35z"/>
<path d="M4723 4023 c9 -2 23 -2 30 0 6 3 -1 5 -18 5 -16 0 -22 -2 -12 -5z"/>
<path d="M2225 3961 c5 -18 0 -31 -26 -57 -18 -19 -38 -34 -43 -34 -18 -1 -99
-182 -86 -190 8 -5 7 -12 -4 -23 -9 -8 -16 -31 -16 -49 1 -27 2 -30 11 -15 5
9 7 22 4 27 -3 6 1 19 9 31 8 12 12 28 9 37 -4 10 -2 13 5 8 6 -3 14 -1 18 5
4 8 3 9 -4 5 -19 -12 -14 23 10 65 11 21 25 36 30 33 4 -3 5 -10 2 -16 -4 -7
-2 -8 5 -4 7 5 20 -1 30 -13 17 -20 19 -20 33 -3 18 20 18 100 0 111 -9 5 -4
16 18 39 29 31 41 60 19 46 -6 -3 -16 0 -21 7 -6 10 -7 7 -3 -10z m-38 -118
c-9 -9 -20 -13 -24 -9 -4 4 1 14 11 22 25 18 35 8 13 -13z"/>
<path d="M3460 3938 c0 -9 7 -22 17 -29 15 -13 15 -12 3 11 -17 34 -20 36 -20
18z"/>
<path d="M4522 3930 c0 -14 2 -19 5 -12 2 6 2 18 0 25 -3 6 -5 1 -5 -13z"/>
<path d="M2332 3900 c5 -17 14 -33 19 -36 12 -7 11 -2 -7 34 -20 40 -26 41
-12 2z"/>
<path d="M3515 3920 c3 -5 10 -10 16 -10 5 0 9 5 9 10 0 6 -7 10 -16 10 -8 0
-12 -4 -9 -10z"/>
<path d="M2430 3883 c1 -5 12 -28 26 -53 13 -25 22 -34 18 -20 -12 45 -45 101
-44 73z"/>
<path d="M2828 3883 c7 -3 16 -2 19 1 4 3 -2 6 -13 5 -11 0 -14 -3 -6 -6z"/>
<path d="M5352 3855 c0 -16 2 -22 5 -12 2 9 2 23 0 30 -3 6 -5 -1 -5 -18z"/>
<path d="M1461 3857 c-1 -12 -20 -27 -56 -42 -65 -29 -74 -40 -12 -16 66 25
80 36 74 57 -4 17 -5 17 -6 1z"/>
<path d="M5616 3823 c-6 -14 -5 -15 5 -6 7 7 10 15 7 18 -3 3 -9 -2 -12 -12z"/>
<path d="M4680 3816 c0 -11 25 -51 49 -78 33 -37 16 -35 -49 6 -30 19 -57 32
-60 29 -3 -3 1 -8 8 -10 8 -3 10 -9 3 -16 -6 -8 -4 -17 6 -26 13 -12 14 -11 8
8 -8 27 9 28 32 1 10 -11 24 -20 33 -20 26 0 75 -41 131 -110 30 -36 110 -124
179 -195 69 -72 145 -156 169 -187 45 -61 90 -156 91 -198 1 -14 6 -34 11 -45
6 -14 7 1 3 45 -9 103 -48 162 -267 392 -175 186 -200 215 -192 228 3 5 2 10
-3 10 -12 0 -73 62 -68 68 8 8 46 -10 41 -19 -4 -5 -2 -9 3 -9 6 0 46 -24 91
-54 44 -29 101 -61 126 -71 26 -9 44 -19 42 -21 -3 -3 -28 4 -58 15 -29 11
-55 19 -57 17 -8 -9 112 -46 149 -46 36 0 39 -2 29 -20 -7 -12 -16 -17 -27
-13 -11 4 -14 3 -9 -6 5 -7 -5 -23 -26 -41 -40 -36 -32 -39 17 -5 l37 24 61
-30 c104 -53 137 -80 214 -177 156 -195 193 -300 134 -373 -16 -20 -21 -21
-35 -10 -10 8 -16 9 -16 3 0 -6 -28 2 -62 18 -35 16 -76 32 -93 35 -16 3 -3
-5 30 -18 33 -13 75 -33 94 -45 28 -17 30 -21 15 -25 -16 -4 -16 -5 2 -6 12 0
24 -8 28 -16 3 -8 12 -15 19 -15 13 0 47 -30 47 -42 0 -13 -147 26 -179 48
-24 15 -44 21 -59 18 -30 -8 -28 -24 2 -24 14 0 27 -4 30 -8 3 -5 -23 -4 -57
1 -34 5 -78 9 -97 9 -28 0 -31 2 -15 8 11 5 15 9 8 9 -6 1 -19 4 -29 8 -13 5
-15 3 -9 -8 7 -12 6 -12 -7 -1 -12 10 -18 10 -23 1 -4 -6 -1 -15 6 -20 10 -6
4 -9 -18 -9 -31 0 -197 62 -217 81 -17 16 -86 11 -86 -6 0 -17 16 -21 22 -5 3
11 106 -21 183 -56 l40 -19 -37 -3 c-25 -2 -38 -8 -38 -18 0 -16 26 -19 35 -4
7 11 157 12 195 1 26 -8 2 -12 -147 -27 -35 -4 -63 -11 -63 -15 0 -12 34 -11
185 2 l125 11 19 -23 19 -24 -31 -8 c-18 -4 -124 -5 -237 -2 -230 7 -210 11
-383 -76 -77 -39 -109 -49 -150 -50 -40 -1 -45 -3 -23 -8 25 -5 27 -8 14 -19
-13 -10 -143 -52 -163 -52 -2 0 3 16 12 35 15 32 21 35 62 36 30 1 37 3 21 7
-24 4 -24 5 10 18 34 14 34 14 5 10 -16 -3 -38 -8 -49 -12 -16 -6 -17 -5 -7
15 7 12 22 26 34 31 16 7 7 8 -32 5 -43 -4 -52 -2 -48 9 8 20 -4 28 -20 14
-19 -16 -30 -1 -12 17 8 9 39 17 68 19 29 2 58 9 64 16 9 9 5 10 -17 4 -16 -4
-117 -8 -225 -9 -313 -2 -294 0 -309 -35 -14 -31 -39 -39 -60 -18 -6 6 -15 8
-19 4 -5 -4 5 -19 22 -32 l30 -23 -38 -77 c-31 -62 -41 -74 -55 -68 -9 4 -57
9 -107 12 -49 2 -95 8 -101 13 -6 5 -33 10 -59 11 l-48 2 85 81 c47 44 88 90
91 103 5 21 -52 -35 -154 -152 -19 -22 -49 -55 -66 -74 -18 -19 -33 -37 -33
-42 0 -4 -7 -13 -15 -20 -8 -7 -15 -16 -15 -21 0 -5 7 -6 15 -3 10 4 15 0 15
-11 0 -23 50 -135 61 -135 4 0 -5 29 -22 65 -29 64 -37 105 -21 105 5 0 16 18
25 40 8 22 21 40 28 40 10 0 10 -3 1 -12 -7 -7 -12 -20 -12 -29 0 -10 -4 -19
-9 -21 -5 -1 3 -46 18 -98 31 -105 59 -174 60 -149 1 9 -8 37 -20 63 -11 26
-19 57 -17 69 3 19 6 16 21 -17 9 -21 18 -48 18 -60 1 -16 2 -17 6 -4 3 13 22
-2 76 -59 40 -42 71 -82 69 -89 -2 -9 6 -14 23 -14 51 0 118 -22 123 -42 2
-10 9 -18 16 -18 6 0 21 -18 34 -40 12 -22 28 -40 34 -40 9 0 9 3 0 12 -26 26
-10 28 21 2 17 -15 31 -33 29 -41 -2 -7 9 -18 23 -23 26 -10 27 -11 20 -83 -4
-39 -12 -80 -17 -90 -5 -11 -7 -30 -4 -43 8 -29 3 -30 -39 -4 -78 48 -211 228
-293 398 -19 39 -39 72 -43 72 -12 0 -11 -17 1 -25 14 -9 12 -81 -2 -93 -9 -7
-13 -38 -12 -94 1 -131 3 -150 14 -143 6 3 10 2 10 -3 0 -6 16 -34 36 -63 20
-30 66 -112 102 -184 73 -145 70 -140 77 -133 3 3 1 17 -4 32 -6 14 -9 26 -7
26 3 0 97 -50 105 -56 2 -2 -13 -33 -34 -69 -20 -36 -35 -71 -33 -77 2 -6 26
32 54 85 48 96 66 118 58 75 l-5 -23 10 22 c12 26 32 23 69 -10 14 -14 22 -16
22 -7 0 15 -25 36 -59 50 -14 6 -21 16 -18 24 3 8 2 16 -4 18 -11 4 0 98 12
98 5 0 9 -7 9 -15 0 -9 9 -15 24 -15 35 0 42 18 11 32 -16 7 -21 14 -14 19 14
9 3 29 -17 29 -8 0 -14 5 -14 10 0 6 5 10 11 10 6 0 7 5 2 13 -12 19 -3 50 23
78 21 22 23 27 10 32 -37 14 -5 137 35 137 41 0 67 25 33 32 -14 3 -13 7 7 33
12 17 -1 5 -29 -24 -28 -30 -54 -52 -58 -48 -6 6 58 141 78 162 9 10 58 15 58
5 0 -3 -10 -57 -21 -120 -16 -86 -22 -173 -26 -345 l-5 -230 -34 -68 c-19 -37
-44 -92 -55 -122 -11 -30 -23 -55 -26 -55 -4 0 -14 7 -24 16 -17 16 -17 18 1
55 24 46 26 67 6 50 -7 -6 -16 -25 -20 -41 -7 -37 -16 -37 -46 -5 l-23 25 20
23 c20 21 58 116 50 124 -3 2 -15 -24 -27 -58 -13 -33 -29 -63 -37 -66 -20 -8
-16 -28 14 -63 23 -28 25 -36 16 -61 -14 -35 -8 -38 9 -5 13 24 14 24 37 7 22
-17 23 -19 7 -49 -19 -37 -40 -41 -57 -11 -8 16 -13 18 -19 9 -5 -9 -21 -11
-48 -8 -59 8 -69 -4 -28 -36 l35 -26 -36 -73 c-21 -39 -38 -76 -38 -82 -1 -5
-3 -16 -3 -23 -1 -7 -7 -10 -14 -6 -6 4 -8 3 -4 -4 3 -6 -8 -40 -26 -77 -25
-49 -37 -65 -50 -61 -13 3 -28 -12 -54 -56 -26 -43 -47 -64 -71 -75 -20 -8
-37 -12 -40 -9 -3 2 9 25 27 51 18 26 29 49 26 52 -3 4 -7 4 -9 2 -2 -2 -21
-32 -43 -66 -28 -46 -52 -69 -86 -88 -58 -32 -65 -42 -42 -60 17 -12 17 -15
-11 -56 -36 -51 -114 -139 -124 -139 -10 0 -51 75 -68 124 -13 40 -13 40 -8 6
3 -19 18 -60 34 -91 27 -55 28 -57 10 -80 -17 -23 -16 -45 2 -34 18 11 9 -11
-26 -65 -19 -30 -35 -58 -35 -62 0 -5 549 -8 1220 -8 l1220 0 0 1320 0 1320
-23 1 c-21 0 -21 1 3 12 21 9 6 12 -95 19 -154 11 -158 12 -172 44 l-12 26 72
-7 c40 -3 105 -15 146 -26 40 -11 76 -18 78 -15 2 2 -11 8 -29 12 l-33 8 29 5
c38 8 44 27 11 35 -15 4 -37 19 -50 34 -23 27 -23 27 -4 48 16 17 19 35 18
112 0 51 -5 90 -10 87 -4 -3 -15 10 -23 29 -26 62 -133 210 -198 272 -34 34
-93 78 -130 99 -65 35 -75 45 -62 57 14 15 187 -91 253 -155 70 -67 140 -182
142 -231 0 -11 5 -30 10 -41 7 -14 8 -7 4 25 -15 119 -136 280 -260 346 -56
30 -56 31 -30 38 41 10 187 126 159 126 -4 0 -26 -18 -49 -39 -43 -42 -109
-81 -137 -81 -27 0 -48 11 -48 26 0 10 15 15 53 16 l52 2 -47 3 c-33 3 -48 9
-48 18 0 8 4 17 10 20 14 9 32 45 23 45 -5 0 -17 -13 -26 -30 -10 -16 -25 -30
-33 -30 -12 0 -11 6 6 30 12 17 18 30 13 30 -5 0 -17 -14 -27 -30 -13 -22 -23
-29 -37 -25 -58 16 -64 17 -49 5 13 -10 12 -11 -3 -6 -10 3 -21 6 -23 6 -3 0
-3 4 0 8 3 5 -45 33 -107 62 -97 47 -109 55 -87 61 23 6 22 7 -9 8 -25 1 -32
5 -27 16 4 10 -1 15 -16 15 -12 0 -33 10 -47 23 -17 15 -21 16 -11 3 13 -16
12 -18 -5 -15 -11 3 -25 16 -32 30 -13 26 -43 58 -43 45z m366 -243 c-5 -5
-106 39 -106 47 0 4 25 -4 55 -18 30 -14 53 -27 51 -29z m524 -682 c0 -28 -36
-69 -50 -55 -8 8 -3 19 17 42 33 37 33 37 33 13z m-136 -120 c3 -4 39 -11 79
-14 110 -10 143 -27 37 -20 -132 8 -239 20 -197 22 20 0 37 6 37 11 0 12 37
13 44 1z m-1114 -85 c0 -3 -4 -8 -10 -11 -5 -3 -10 -1 -10 4 0 6 5 11 10 11 6
0 10 -2 10 -4z m-87 -31 c-23 -31 -33 -32 -26 -2 4 18 3 19 -6 7 -6 -8 -11
-10 -11 -4 0 17 11 24 37 24 24 0 24 0 6 -25z m97 0 c0 -8 -9 -15 -20 -15 -25
0 -26 17 -2 23 9 3 18 5 20 6 1 0 2 -6 2 -14z m808 -22 c102 -26 103 -26 121
-67 16 -34 16 -43 5 -52 -19 -15 -19 -15 20 -73 34 -50 44 -84 70 -235 18
-103 8 -330 -16 -349 -8 -7 -27 -32 -41 -57 -33 -57 -76 -109 -77 -92 0 20
-19 14 -51 -19 -24 -25 -29 -36 -24 -62 4 -18 2 -45 -4 -60 -15 -39 6 -35 25
6 l15 32 -6 -38 c-3 -21 -7 -44 -9 -50 -1 -7 2 -2 8 11 6 14 19 22 35 22 31 0
40 6 69 44 l22 29 0 -42 c0 -22 5 -41 10 -41 6 0 10 24 10 54 0 38 7 66 21 90
28 47 37 45 33 -6 -11 -133 -11 -177 -1 -181 8 -2 6 -12 -5 -28 -34 -52 -108
-115 -218 -187 -125 -81 -150 -99 -284 -210 -49 -41 -104 -81 -122 -90 -19 -9
-30 -19 -24 -22 6 -3 -19 -30 -54 -59 -35 -29 -69 -64 -76 -77 -8 -13 -16 -24
-20 -24 -9 0 -199 127 -234 156 -15 13 -37 24 -47 24 -11 0 -39 10 -62 22 -73
37 -181 68 -189 55 -27 -43 30 110 77 205 l35 70 0 188 c0 104 3 195 6 204 5
14 8 14 27 1 12 -8 27 -15 35 -15 23 0 -5 37 -34 44 -25 7 -26 9 -19 59 17
120 53 268 70 287 10 11 28 20 40 20 25 0 49 23 37 34 -4 4 -2 6 3 5 6 -2 20
2 33 9 28 16 28 3 1 -32 -40 -51 -1 -42 74 16 20 16 37 26 37 21 0 -17 -25
-40 -77 -73 -54 -34 -66 -50 -37 -50 14 0 14 -3 4 -15 -11 -13 -8 -15 20 -15
32 0 33 -1 16 -19 -10 -11 -15 -25 -11 -31 3 -6 1 -9 -5 -8 -16 4 -80 -89 -80
-116 1 -16 4 -13 16 13 25 58 56 104 63 92 4 -7 29 10 62 41 63 61 134 105 99
63 -7 -8 -19 -15 -26 -15 -17 0 -19 -20 -1 -20 6 0 -1 -12 -18 -27 -25 -22
-55 -65 -55 -79 0 -12 27 0 63 30 23 18 53 37 66 41 17 5 6 -10 -39 -54 -46
-46 -60 -65 -52 -73 8 -8 23 0 56 30 25 23 49 42 53 42 5 0 -13 -20 -39 -45
-58 -54 -68 -101 -14 -60 30 23 37 18 18 -14 -24 -42 -8 -50 24 -12 14 18 29
29 32 27 3 -3 10 -2 17 4 8 6 11 2 10 -15 0 -15 -17 -39 -45 -66 -26 -24 -40
-44 -33 -46 7 -2 28 14 49 36 20 23 40 38 45 35 5 -3 21 1 36 9 16 8 46 23 68
33 22 10 65 43 95 72 72 71 180 145 180 125 0 -16 -165 -163 -183 -163 -19 0
-142 -118 -133 -128 3 -3 12 1 20 7 8 7 20 10 26 6 6 -4 47 21 91 55 44 34 82
60 85 57 3 -3 -11 -18 -32 -34 -20 -15 -56 -45 -79 -65 -23 -21 -47 -38 -54
-38 -6 0 -11 -7 -11 -16 0 -17 5 -14 60 25 l35 25 -25 -29 c-25 -30 -50 -70
-50 -80 0 -12 26 -3 48 18 23 21 24 21 22 2 -4 -34 -1 -36 24 -20 23 15 23 15
18 -11 -4 -24 -2 -26 19 -22 13 3 33 9 43 13 19 8 19 8 3 -15 -9 -14 -17 -28
-17 -32 0 -17 16 -7 32 19 10 16 18 22 18 16 0 -20 20 -15 20 5 0 9 10 28 21
42 l20 25 -5 -36 c-4 -20 -2 -47 3 -60 9 -22 10 -21 10 13 2 67 22 134 51 169
l28 34 -8 -42 c-4 -24 -6 -44 -4 -44 29 -10 43 5 92 91 l32 55 -5 -40 c-5 -37
-4 -38 5 -10 5 17 8 36 5 44 -3 7 5 32 18 55 48 84 95 232 80 247 -15 15 -55
-39 -95 -126 -52 -110 -47 -118 8 -15 53 99 64 113 64 82 0 -25 -21 -77 -82
-202 -40 -81 -42 -83 -50 -55 -5 20 -3 36 7 52 19 28 19 39 1 24 -25 -21 -29
55 -5 101 57 111 80 192 85 293 4 94 3 98 -11 71 -8 -15 -15 -37 -15 -48 0
-51 -186 -359 -239 -397 -16 -11 -31 -18 -34 -14 -4 3 -9 -1 -13 -10 -5 -15
-72 -68 -114 -91 -22 -13 59 71 103 106 28 23 36 25 31 11 -5 -16 -4 -16 10 1
9 11 16 24 16 29 0 5 11 22 25 39 30 36 31 44 5 51 -11 3 -20 1 -20 -3 0 -8
-85 -70 -96 -70 -2 0 9 19 26 43 53 72 192 289 222 346 28 54 36 87 18 76 -5
-3 -10 -14 -10 -25 0 -10 -10 -36 -23 -59 l-23 -41 -23 55 c-30 73 -72 129
-121 161 -33 22 -48 26 -85 21 -47 -5 -63 -12 -52 -23 3 -4 19 -2 34 3 45 14
79 4 125 -37 47 -41 91 -114 103 -168 6 -29 1 -42 -27 -85 -19 -29 -63 -95
-98 -147 -75 -112 -103 -148 -140 -175 -15 -11 -27 -23 -26 -26 2 -10 -36 -49
-47 -49 -6 0 -2 10 9 23 l19 22 -22 -19 c-12 -10 -21 -23 -20 -28 1 -6 -4 -13
-12 -16 -10 -3 -11 0 -5 9 4 8 -5 4 -20 -9 -16 -12 -33 -22 -39 -22 -13 0 64
75 86 83 9 3 17 12 17 19 0 6 38 51 85 99 76 77 99 109 79 109 -4 0 -38 -18
-75 -39 -38 -22 -69 -37 -69 -33 0 4 27 34 60 66 33 32 60 63 60 69 0 12 -23
-6 -69 -56 l-36 -38 3 78 c1 43 3 99 4 124 2 79 -50 158 -89 133 -30 -19 -25
-30 12 -26 32 4 36 1 49 -29 8 -19 16 -54 18 -79 2 -38 0 -45 -15 -44 -15 2
-17 -3 -12 -26 6 -25 -3 -37 -86 -119 -66 -64 -96 -87 -105 -80 -8 6 -21 6
-40 -1 -24 -9 -18 1 36 54 69 70 73 91 5 29 -29 -28 -33 -30 -14 -8 38 45 60
84 57 100 -2 9 26 42 62 75 58 53 62 59 40 60 -14 0 -40 -9 -58 -20 -51 -31
-58 -24 -18 20 20 22 36 45 36 51 0 6 -12 -3 -26 -20 -14 -17 -51 -50 -82 -74
-84 -64 -166 -101 -130 -59 45 52 32 54 -24 5 -35 -32 -39 -33 -20 -9 35 45
14 52 -31 9 l-41 -38 43 50 c24 28 58 65 75 84 17 19 30 38 28 43 -1 4 4 8 10
8 7 1 33 18 56 39 34 29 40 40 28 44 -15 6 -31 -8 -31 -28 0 -5 -5 -10 -11
-10 -7 0 -38 -25 -70 -54 -33 -30 -65 -54 -73 -52 -7 1 -24 -7 -36 -19 -13
-12 -29 -20 -35 -18 -11 3 55 70 179 178 103 90 157 117 94 46 -19 -21 -15
-19 12 7 36 32 47 37 90 37 l50 0 -50 -45 c-27 -24 -54 -44 -60 -45 -15 0
-105 -93 -105 -107 0 -7 -5 -13 -11 -13 -5 0 -7 6 -3 13 8 14 -25 -13 -71 -57
-16 -17 -21 -22 -9 -13 23 19 39 23 29 7 -9 -14 30 -7 49 9 9 7 14 16 12 20
-5 7 19 43 28 42 3 -1 6 2 7 7 1 14 21 32 29 27 9 -5 25 13 25 28 0 4 5 8 10
9 6 2 23 15 38 29 l28 27 51 -28 c31 -17 62 -45 79 -71 16 -23 29 -35 29 -27
0 17 -82 106 -119 129 l-24 15 44 30 c24 16 43 34 42 39 -2 13 16 34 41 47 19
10 19 8 -3 -15 l-24 -26 30 8 c46 13 92 40 105 61 14 22 25 21 176 -17z m-878
7 c0 -5 -4 -10 -9 -10 -5 0 -14 -13 -20 -30 -5 -16 -15 -30 -20 -30 -16 0 -14
8 10 46 20 33 39 44 39 24z m572 -23 c-18 -18 -29 -36 -26 -40 12 -12 -23 -18
-87 -15 l-64 3 58 28 c31 14 57 31 57 36 0 6 17 12 38 14 20 2 41 4 46 5 6 1
-5 -13 -22 -31z m-882 19 c0 -3 -4 -8 -10 -11 -5 -3 -10 -1 -10 4 0 6 5 11 10
11 6 0 10 -2 10 -4z m364 -28 c-4 -13 -20 -54 -36 -93 -16 -38 -32 -77 -34
-85 -7 -21 32 -24 40 -3 4 8 13 13 20 10 8 -3 17 -1 19 6 2 7 7 9 11 5 4 -3 2
-16 -4 -28 -10 -18 -14 -20 -21 -9 -6 10 -9 8 -9 -9 0 -34 21 -23 45 23 14 26
32 42 55 51 63 23 66 15 7 -27 -31 -22 -55 -45 -52 -50 7 -11 -19 -54 -59 -96
-26 -28 -37 -33 -80 -35 l-51 -1 47 -6 47 -6 -43 -50 -43 -49 -39 17 c-22 9
-51 21 -66 27 l-28 9 17 36 c9 19 21 35 27 35 6 0 19 11 31 26 19 24 21 24 51
9 24 -12 38 -13 59 -5 37 14 29 39 -18 55 -21 7 -41 16 -44 19 -5 4 32 64 47
76 4 3 10 17 14 33 3 15 15 36 24 45 10 10 17 23 14 30 -5 16 28 62 45 62 10
0 12 -6 7 -22z m26 -18 c-11 -22 -18 -50 -15 -62 2 -13 -2 -36 -10 -53 -16
-31 -16 -30 1 40 3 11 -7 0 -21 -25 -30 -52 -29 -45 10 63 16 45 33 77 42 77
10 0 9 -9 -7 -40z m74 -6 c-18 -27 -60 -34 -50 -8 3 9 6 19 6 24 0 9 40 18 52
12 4 -1 1 -14 -8 -28z m905 -44 c10 -22 15 -40 11 -40 -5 0 -12 9 -15 20 -4
12 -16 30 -28 40 -17 17 -18 20 -4 20 9 0 25 -17 36 -40z m-1109 12 c0 -16
-62 -122 -69 -118 -3 2 -15 -16 -25 -40 -10 -24 -22 -44 -27 -44 -5 0 -9 -7
-9 -15 0 -32 17 -11 80 99 36 63 66 113 68 111 10 -10 -125 -241 -146 -250 -7
-2 -22 5 -33 16 -20 20 -20 21 -3 47 10 15 30 52 45 82 14 30 36 64 49 75 l23
20 -12 -22 c-6 -12 -11 -32 -10 -45 1 -23 1 -23 8 2 13 40 41 90 51 90 6 0 10
-4 10 -8z m1134 -18 c3 -8 2 -12 -4 -9 -6 3 -10 10 -10 16 0 14 7 11 14 -7z
m-979 -43 c-20 -40 -49 -43 -34 -4 11 28 42 57 47 43 2 -5 -4 -22 -13 -39z
m1089 -146 c47 -117 65 -185 49 -185 -21 0 -41 37 -53 95 -7 33 -28 102 -46
154 -19 51 -34 96 -34 100 0 20 46 -69 84 -164z m-115 101 c28 -65 34 -86 22
-86 -15 0 -51 74 -51 105 0 35 6 31 29 -19z m-854 5 c-3 -6 -14 -11 -23 -11
-15 1 -15 2 2 15 21 16 32 13 21 -4z m-945 -16 c0 -8 -4 -15 -9 -15 -5 0 -11
7 -15 15 -3 9 0 15 9 15 8 0 15 -7 15 -15z m158 4 c32 1 42 -2 42 -15 0 -9 -9
-18 -20 -21 -17 -4 -19 -12 -15 -57 2 -28 9 -67 15 -86 20 -67 14 -75 -28 -41
-53 41 -89 98 -97 151 -3 25 -9 54 -12 64 -5 17 -2 18 33 11 22 -4 58 -7 82
-6z m92 -9 c0 -5 -7 -10 -15 -10 -8 0 -15 5 -15 10 0 6 7 10 15 10 8 0 15 -4
15 -10z m-223 -42 c-3 -7 -5 -2 -5 12 0 14 2 19 5 13 2 -7 2 -19 0 -25z m-37
3 c0 -6 -4 -13 -10 -16 -5 -3 -10 1 -10 9 0 9 5 16 10 16 6 0 10 -4 10 -9z
m1904 -131 c4 -21 3 -31 -3 -25 -12 13 -41 113 -40 139 1 24 32 -60 43 -114z
m-1424 105 c0 -8 -4 -15 -10 -15 -5 0 -7 7 -4 15 4 8 8 15 10 15 2 0 4 -7 4
-15z m520 -28 c0 -2 -10 -12 -22 -23 l-23 -19 19 23 c18 21 26 27 26 19z
m-858 -131 c69 -70 79 -88 36 -65 -71 37 -148 128 -148 173 1 19 3 17 22 -9
12 -16 52 -61 90 -99z m551 117 c-7 -2 -21 -2 -30 0 -10 3 -4 5 12 5 17 0 24
-2 18 -5z m317 -7 c0 -2 -8 -10 -17 -17 -16 -13 -17 -12 -4 4 13 16 21 21 21
13z m-790 -51 c0 -17 -2 -17 -10 -5 -5 8 -10 24 -10 35 0 17 2 17 10 5 5 -8
10 -24 10 -35z m24 29 c8 -22 7 -34 -3 -34 -5 0 -11 11 -13 25 -6 28 6 34 16
9z m56 -6 c0 -19 -2 -20 -10 -8 -13 19 -13 30 0 30 6 0 10 -10 10 -22z m573
-3 c-18 -25 -40 -35 -27 -12 14 24 27 37 36 37 5 0 1 -11 -9 -25z m317 11 c-8
-8 -55 -46 -104 -85 -90 -71 -132 -94 -82 -45 14 15 26 31 26 36 0 6 7 8 14 5
9 -4 13 -1 10 6 -4 13 10 23 91 69 56 31 66 34 45 14z m648 -51 c0 -29 0 -29
-8 -5 -4 14 -8 36 -8 50 -1 23 0 23 8 5 5 -11 8 -33 8 -50z m-1448 31 c0 -14
-4 -28 -10 -31 -6 -4 -10 7 -10 24 0 17 5 31 10 31 6 0 10 -11 10 -24z m117
18 c-3 -3 -12 -4 -19 -1 -8 3 -5 6 6 6 11 1 17 -2 13 -5z m1204 -123 c-31
-101 -54 -147 -72 -143 -8 1 -32 -9 -53 -23 -20 -14 -38 -25 -40 -25 -2 0 21
37 51 83 30 45 71 114 91 152 29 56 37 65 40 47 2 -13 -6 -54 -17 -91z m179
36 c0 -10 4 -16 9 -12 5 3 13 0 17 -6 4 -8 3 -9 -4 -5 -15 9 -16 15 9 -122 15
-84 20 -141 16 -203 -5 -101 -10 -113 -38 -99 -24 13 -24 20 3 77 16 33 18 48
10 51 -8 2 -12 30 -12 82 0 43 -7 114 -15 157 -18 93 -20 136 -5 113 5 -8 10
-23 10 -33z m-1630 -131 c76 -37 70 -46 -14 -25 -32 8 -58 26 -102 71 l-59 60
50 -35 c28 -20 84 -52 125 -71z m725 94 c-3 -5 -12 -10 -18 -10 -7 0 -6 4 3
10 19 12 23 12 15 0z m83 -37 c-33 -47 -51 -53 -53 -20 -1 11 13 28 34 42 53
35 57 30 19 -22z m209 -15 c-5 -46 -12 -58 -48 -91 -41 -36 -42 -37 -56 -17
-8 11 -22 20 -31 20 -11 0 8 25 53 69 39 37 74 69 79 70 5 0 6 -23 3 -51z
m-587 13 c0 -5 -13 -19 -30 -31 -35 -25 -39 -16 -8 17 22 24 38 30 38 14z
m1189 -63 c1 -20 -3 -40 -9 -43 -6 -4 -10 17 -9 57 0 68 17 56 18 -14z m-534
-40 c-33 -34 -65 -66 -70 -72 -6 -6 -24 -22 -39 -36 -27 -23 -28 -24 -17 -3 6
12 11 24 11 27 0 13 -34 5 -63 -15 -27 -17 -25 -15 8 16 22 20 39 41 38 46 -2
4 5 5 14 2 10 -4 14 -2 10 4 -4 6 1 17 11 24 15 13 16 12 3 -3 -7 -10 -10 -18
-7 -18 4 0 2 -10 -4 -22 -10 -22 -10 -22 7 1 31 41 67 72 103 92 58 30 57 22
-5 -43z m-410 32 c-3 -5 -16 -15 -28 -21 -21 -10 -21 -9 2 10 25 23 36 27 26
11z m-381 -89 c-28 -54 -44 -64 -22 -15 17 40 40 75 45 70 2 -2 -8 -27 -23
-55z m-356 -89 c59 -117 61 -125 32 -97 -45 43 -130 227 -103 224 5 0 36 -58
71 -127z m1346 46 c-43 -46 -82 -85 -87 -87 -5 -2 7 20 27 50 28 41 113 117
135 119 2 0 -32 -37 -75 -82z m339 67 c-3 -9 -8 -14 -10 -11 -3 3 -2 9 2 15 9
16 15 13 8 -4z m-295 -107 c-30 -57 -73 -129 -94 -160 -40 -57 -116 -127 -121
-111 -2 5 8 31 22 57 14 26 25 49 25 52 0 14 -24 -1 -55 -33 -19 -21 -35 -33
-35 -26 0 7 19 32 43 57 23 24 91 96 152 159 60 64 111 114 113 112 3 -2 -20
-50 -50 -107z m-447 64 c-6 -11 -18 -22 -26 -26 -12 -4 -11 1 5 25 24 32 38
33 21 1z m-1009 -32 c9 -27 14 -50 12 -50 -6 0 -44 78 -44 90 0 27 18 5 32
-40z m1720 8 c-6 -6 -7 0 -4 19 5 21 7 23 10 9 2 -10 0 -22 -6 -28z m29 -1
c-10 -9 -11 -8 -5 6 3 10 9 15 12 12 3 -3 0 -11 -7 -18z m-432 -64 c-47 -70
-167 -208 -174 -201 -2 2 12 24 32 48 19 25 46 61 59 82 26 40 97 118 108 118
4 0 -8 -21 -25 -47z m-1329 1 c0 -14 -4 -22 -10 -19 -5 3 -10 17 -10 31 0 14
4 22 10 19 6 -3 10 -17 10 -31z m1750 12 c0 -14 -4 -27 -9 -30 -12 -8 -22 20
-15 39 9 23 24 18 24 -9z m-269 -36 c-10 -31 -82 -123 -89 -115 -2 2 5 16 16
32 11 15 32 53 47 83 28 55 46 55 26 0z m49 -16 c8 -21 6 -33 -12 -63 l-23
-36 -3 34 c-3 29 14 91 24 91 3 0 9 -12 14 -26z m154 -48 c-39 -48 -42 -38 -7
24 21 38 29 46 31 31 2 -11 -9 -36 -24 -55z m-1657 42 c-3 -8 -6 -5 -6 6 -1
11 2 17 5 13 3 -3 4 -12 1 -19z m-16 -35 c11 -25 18 -54 16 -62 -3 -16 -32 40
-43 86 -10 39 6 25 27 -24z m152 -82 c26 -18 59 -44 75 -58 15 -14 46 -39 70
-55 l44 -30 -7 -52 c-4 -28 -11 -55 -15 -59 -13 -14 -103 39 -151 90 -54 56
-93 121 -109 181 -6 24 -14 51 -17 60 -4 10 7 5 28 -14 19 -17 55 -45 82 -63z
m1665 -28 c-3 -50 -10 -88 -17 -96 -11 -10 -12 -5 -5 23 5 19 9 62 10 95 0 33
2 69 4 80 6 49 12 -22 8 -102z m-98 102 c0 -3 -12 -24 -27 -47 -25 -37 -28
-39 -31 -19 -4 27 23 71 43 71 8 0 15 -2 15 -5z m-1510 -78 c0 -14 -39 23 -52
48 -8 14 -2 12 21 -9 17 -17 31 -34 31 -39z m1527 31 c-3 -7 -5 -2 -5 12 0 14
2 19 5 13 2 -7 2 -19 0 -25z m-1347 2 c0 -5 -4 -10 -10 -10 -5 0 -10 5 -10 10
0 6 5 10 10 10 6 0 10 -4 10 -10z m1377 -22 c-3 -8 -6 -5 -6 6 -1 11 2 17 5
13 3 -3 4 -12 1 -19z m-151 -14 c-4 -9 -9 -15 -11 -12 -3 3 -3 13 1 22 4 9 9
15 11 12 3 -3 3 -13 -1 -22z m14 -60 c-30 -35 -41 -4 -12 36 l17 25 3 -23 c2
-13 -2 -30 -8 -38z m107 14 c-3 -7 -5 -2 -5 12 0 14 2 19 5 13 2 -7 2 -19 0
-25z m-161 -25 c-11 -11 -17 4 -9 23 7 18 8 18 11 1 2 -10 1 -21 -2 -24z
m-1236 -39 c0 -2 -9 0 -20 6 -11 6 -20 13 -20 16 0 2 9 0 20 -6 11 -6 20 -13
20 -16z m-144 -111 c17 10 109 -48 112 -71 2 -13 -2 -22 -10 -22 -22 0 -117
59 -128 79 -15 29 -12 48 3 26 8 -10 18 -16 23 -12z m1570 -98 c-25 -79 -28
-84 -43 -69 -15 15 -15 17 0 26 30 16 18 29 -13 13 -35 -18 -39 -40 -9 -48 16
-4 20 -10 14 -24 -4 -10 -8 -31 -9 -48 -2 -32 -31 -95 -45 -95 -21 0 -18 16
10 52 17 21 29 41 27 44 -3 2 -24 -20 -47 -51 -67 -89 -336 -324 -414 -363
-37 -18 -72 -30 -78 -27 -5 4 -17 1 -25 -6 -8 -6 -17 -10 -19 -7 -5 5 72 64
112 86 46 26 33 6 -20 -31 -28 -20 -47 -37 -41 -37 6 0 81 57 167 126 152 122
274 250 279 292 1 9 2 24 3 32 1 8 7 26 14 39 l13 23 -26 -18 c-14 -11 -26
-28 -26 -39 0 -12 -6 -27 -12 -34 -10 -11 -10 -13 0 -7 17 10 15 -6 -4 -30
-13 -16 -15 -16 -10 -1 8 26 2 21 -34 -30 -19 -25 -28 -43 -22 -39 17 10 15
-9 -3 -24 -8 -7 -15 -9 -15 -5 0 3 -35 -26 -77 -65 -78 -72 -164 -130 -194
-130 -8 0 -28 -14 -45 -31 -42 -44 -171 -122 -190 -115 -8 3 -12 11 -9 17 4 6
-2 17 -14 25 -28 20 -21 30 64 99 80 65 106 90 55 54 -115 -83 -18 12 112 109
48 36 85 68 83 72 -6 9 70 67 175 135 41 26 86 55 100 64 52 34 6 -11 -51 -50
-33 -22 -63 -47 -66 -55 -3 -8 -12 -13 -20 -10 -8 3 -12 2 -9 -3 4 -5 -11 -23
-32 -41 -58 -49 10 -2 93 64 39 31 88 65 110 77 22 11 49 25 59 32 11 7 44 27
73 45 30 18 51 37 47 43 -7 11 25 64 33 55 3 -3 -6 -44 -21 -91z m-95 12 c-10
-9 -11 -8 -5 6 3 10 9 15 12 12 3 -3 0 -11 -7 -18z m-130 -260 c-13 -12 -20
-15 -16 -7 14 26 28 41 33 35 3 -3 -5 -16 -17 -28z m-51 -61 c0 -2 -8 -10 -17
-17 -16 -13 -17 -12 -4 4 13 16 21 21 21 13z m-1031 -80 c36 -14 72 -26 80
-26 9 1 -8 9 -38 20 -65 24 -111 52 -93 58 7 2 19 -1 26 -7 7 -6 20 -9 28 -6
8 3 31 -1 51 -10 65 -27 42 -27 -38 0 -11 3 -8 -1 7 -10 15 -8 51 -20 80 -25
28 -6 54 -14 57 -18 4 -4 20 -12 36 -18 32 -11 208 -124 202 -130 -9 -9 -120
31 -258 93 -85 39 -175 78 -201 88 -27 10 -48 21 -48 25 0 16 14 19 29 6 9 -8
45 -26 80 -40z m-209 40 c0 -13 -13 -36 -21 -36 -4 0 -13 9 -19 20 -9 18 -8
20 15 20 14 0 25 -2 25 -4z m30 -15 c0 -5 10 -7 21 -4 19 5 20 3 14 -18 -14
-49 -55 -97 -81 -95 -30 1 -30 3 3 71 25 50 43 70 43 46z m147 -40 c112 -41
260 -113 246 -118 -23 -8 -15 -43 9 -43 27 0 154 -62 191 -93 25 -21 27 -25
12 -31 -11 -4 -53 12 -116 44 -103 53 -307 136 -360 147 -19 3 -34 14 -36 25
-6 22 -26 23 -43 3 -7 -8 -19 -15 -26 -15 -25 0 -15 31 16 48 16 9 30 23 30
30 0 7 -4 10 -10 7 -11 -7 -14 8 -3 18 9 9 2 11 90 -22z m424 -196 c24 -14 36
-25 27 -25 -22 0 -88 31 -88 42 0 13 16 9 61 -17z m54 4 c15 -14 -7 -10 -35 7
l-25 15 25 -7 c14 -3 29 -10 35 -15z m216 -19 c10 -6 19 -15 19 -19 0 -12 -81
-51 -103 -51 -29 0 -18 16 23 35 23 10 43 23 47 28 3 5 -9 2 -25 -7 -43 -22
-53 -20 -17 4 35 23 31 23 56 10z m-166 -30 c10 -11 15 -20 12 -20 -14 0 -57
24 -57 32 0 15 27 8 45 -12z m-100 -70 c-3 -5 -23 -9 -43 -9 l-37 2 35 7 c52
11 52 11 45 0z m-1043 -232 c-16 -17 -25 -19 -33 -11 -8 8 -4 15 17 26 37 19
44 13 16 -15z"/>
<path d="M5172 2568 c-14 -14 -16 -58 -3 -58 5 0 7 8 4 19 -3 10 0 22 6 25 14
9 40 -45 56 -118 9 -39 14 -50 14 -32 1 43 -29 143 -48 160 -13 12 -20 13 -29
4z"/>
<path d="M4740 2230 c-12 -16 -17 -30 -12 -30 10 0 52 43 52 53 0 16 -20 5
-40 -23z"/>
<path d="M4240 1939 c-12 -16 -20 -32 -17 -35 2 -3 14 11 25 31 26 43 21 46
-8 4z"/>
<path d="M4598 1692 c-34 -34 -60 -63 -57 -67 4 -3 35 21 70 54 35 33 60 63
57 67 -4 3 -35 -21 -70 -54z"/>
<path d="M4263 1703 c15 -2 39 -2 55 0 15 2 2 4 -28 4 -30 0 -43 -2 -27 -4z"/>
<path d="M4660 1666 c0 -8 -12 -28 -26 -45 -14 -17 -24 -36 -22 -42 5 -14 52
47 62 79 5 13 3 22 -3 22 -6 0 -11 -6 -11 -14z"/>
<path d="M4750 1618 c0 -8 -7 -21 -15 -28 -8 -7 -15 -16 -15 -21 0 -18 20 -8
36 17 13 19 14 28 5 37 -8 8 -11 7 -11 -5z"/>
<path d="M4205 1420 c-3 -5 2 -10 12 -10 10 0 38 -7 63 -16 38 -13 56 -14 119
-4 84 13 144 34 76 25 -151 -18 -154 -18 -179 -1 -28 18 -81 22 -91 6z"/>
<path d="M4610 928 c-41 -17 -90 -31 -107 -31 -34 -1 -47 -17 -15 -17 23 0
150 43 188 63 45 25 17 18 -66 -15z"/>
<path d="M4969 1103 c-13 -16 -12 -17 4 -4 9 7 17 15 17 17 0 8 -8 3 -21 -13z"/>
<path d="M4879 1033 c-13 -16 -12 -17 4 -4 9 7 17 15 17 17 0 8 -8 3 -21 -13z"/>
<path d="M4233 953 c9 -2 23 -2 30 0 6 3 -1 5 -18 5 -16 0 -22 -2 -12 -5z"/>
<path d="M2390 3801 c0 -6 4 -13 10 -16 6 -3 7 1 4 9 -7 18 -14 21 -14 7z"/>
<path d="M1057 3743 c-13 -21 -32 -54 -41 -73 l-17 -35 20 25 c21 26 72 120
65 120 -2 0 -14 -17 -27 -37z"/>
<path d="M2126 3753 c-6 -14 -5 -15 5 -6 7 7 10 15 7 18 -3 3 -9 -2 -12 -12z"/>
<path d="M1152 3747 c-5 -6 -17 -28 -26 -47 -9 -19 -11 -26 -4 -16 7 11 23 30
35 43 12 12 18 25 13 28 -4 2 -12 -1 -18 -8z"/>
<path d="M2170 3729 c0 -11 4 -18 10 -14 5 3 7 12 3 20 -7 21 -13 19 -13 -6z"/>
<path d="M2469 3688 c92 -125 287 -328 314 -328 7 0 -15 24 -48 53 -91 79
-170 165 -223 239 -26 37 -53 69 -60 72 -8 4 0 -13 17 -36z"/>
<path d="M1320 3710 c-8 -5 -10 -10 -5 -10 6 0 17 5 25 10 8 5 11 10 5 10 -5
0 -17 -5 -25 -10z"/>
<path d="M2124 3688 l-19 -23 23 19 c21 18 27 26 19 26 -2 0 -12 -10 -23 -22z"/>
<path d="M2150 3680 c-6 -11 -8 -20 -6 -20 3 0 10 9 16 20 6 11 8 20 6 20 -3
0 -10 -9 -16 -20z"/>
<path d="M4180 3692 c0 -6 29 -42 65 -79 36 -38 62 -60 59 -49 -12 31 26 4 90
-65 45 -48 55 -66 50 -82 -13 -45 -77 -157 -89 -157 -7 0 -37 18 -66 41 -56
42 -31 16 31 -34 l35 -27 -41 -40 c-23 -21 -39 -41 -36 -44 10 -11 32 -6 32 7
1 21 49 69 62 61 22 -14 48 -38 48 -45 0 -4 -8 -10 -17 -12 -12 -3 -9 -5 8 -6
15 0 32 -8 39 -16 10 -13 4 -14 -48 -11 -32 2 -75 0 -93 -4 -32 -7 -31 -8 18
-9 63 -1 155 -21 165 -35 4 -6 8 -18 8 -27 0 -20 -54 -33 -80 -19 -9 5 -36 11
-59 12 -22 2 -41 6 -41 11 0 4 -4 7 -10 7 -27 0 -4 -19 48 -40 31 -12 62 -29
68 -36 13 -16 120 -32 111 -17 -4 6 -25 13 -48 17 -23 4 -39 9 -36 13 4 3 34
0 67 -7 33 -7 63 -10 66 -7 3 3 -11 9 -31 13 -31 6 -36 10 -31 28 3 11 6 30 6
42 0 12 10 25 25 32 14 6 25 16 25 22 0 7 -9 5 -22 -4 -33 -23 -45 -20 -86 20
-20 20 -52 49 -71 66 l-33 29 25 47 c14 26 36 66 49 90 l23 44 22 -28 21 -27
-23 -64 c-12 -35 -19 -63 -14 -63 4 0 14 18 20 40 13 43 39 75 39 47 0 -8 7
-20 15 -27 41 -34 119 -218 113 -268 -2 -14 2 -27 9 -29 20 -7 35 36 28 76 -4
20 -6 38 -5 40 1 2 -2 7 -7 10 -4 3 -12 13 -18 22 -5 8 -40 61 -77 117 l-67
101 20 58 c30 87 39 135 26 130 -7 -2 -15 -23 -19 -48 -10 -59 -29 -119 -39
-119 -20 0 -40 50 -35 87 l6 38 -11 -34 -10 -34 -66 72 c-54 59 -71 72 -90 68
-19 -3 -32 6 -65 47 -60 73 -58 71 -58 58z m488 -587 c-3 -3 -9 2 -12 12 -6
14 -5 15 5 6 7 -7 10 -15 7 -18z m9 -37 c-3 -8 -6 -5 -6 6 -1 11 2 17 5 13 3
-3 4 -12 1 -19z m-257 -38 c8 -5 11 -10 5 -10 -5 0 -17 5 -25 10 -8 5 -10 10
-5 10 6 0 17 -5 25 -10z"/>
<path d="M2272 3669 c-15 -24 -13 -32 7 -20 7 5 11 16 9 25 -2 14 -5 13 -16
-5z"/>
<path d="M3800 3686 c0 -2 8 -10 18 -17 15 -13 16 -12 3 4 -13 16 -21 21 -21
13z"/>
<path d="M1572 3647 c-12 -13 -22 -29 -22 -35 0 -7 -7 -24 -16 -37 -32 -49 -6
-24 31 30 40 58 44 81 7 42z"/>
<path d="M3130 3656 c0 -8 -15 -16 -37 -19 -21 -3 -49 -9 -62 -13 -17 -5 -22
-4 -17 4 14 23 -17 12 -64 -23 -26 -19 -53 -35 -59 -35 -17 0 -13 -28 5 -38
15 -8 14 -12 -5 -31 -12 -12 -26 -19 -31 -16 -6 3 -7 -1 -4 -9 8 -20 7 -20 54
9 22 14 40 21 40 15 0 -5 -12 -16 -27 -24 -18 -10 -22 -15 -12 -16 9 0 20 -7
23 -17 6 -14 8 -15 19 0 6 8 48 23 92 32 44 10 84 21 90 26 14 13 58 10 78 -6
11 -7 36 -17 58 -20 21 -4 37 -12 36 -18 -3 -17 44 -21 54 -5 12 19 11 28 -5
28 -7 0 -20 10 -28 22 -12 18 -23 21 -64 20 -35 -1 -45 1 -34 8 8 5 25 10 36
10 14 0 21 6 20 17 0 10 8 19 19 21 11 2 23 9 27 15 4 7 11 7 22 -3 14 -11 16
-10 10 3 -6 16 -41 33 -58 28 -5 -1 -28 1 -50 5 -35 6 -38 8 -23 19 15 11 13
13 -20 19 -59 9 -83 7 -83 -8z m79 -13 c3 -2 -1 -9 -7 -15 -10 -10 -17 -7 -35
11 l-22 22 30 -7 c17 -4 32 -9 34 -11z m51 -73 c0 -5 -4 -10 -9 -10 -6 0 -13
5 -16 10 -3 6 1 10 9 10 9 0 16 -4 16 -10z m-227 -52 c-4 -7 -8 -17 -8 -23 0
-5 -9 -9 -19 -7 -10 2 -27 -4 -37 -14 -11 -9 -22 -14 -26 -11 -3 4 -1 7 5 7 7
0 12 6 12 13 0 7 15 21 33 30 39 19 51 21 40 5z"/>
<path d="M2289 3640 c-19 -15 -20 -19 -8 -20 9 0 17 -6 16 -12 0 -7 1 -22 1
-32 2 -18 3 -18 20 -3 24 22 36 22 28 0 -6 -15 -4 -15 12 2 11 11 23 30 27 43
6 20 3 22 -30 22 -22 0 -34 4 -30 10 10 17 -11 11 -36 -10z"/>
<path d="M2829 3645 c6 -11 18 -29 28 -41 18 -20 18 -21 36 -3 9 11 13 19 8
19 -6 0 -13 -5 -17 -12 -5 -7 -17 1 -36 23 -16 19 -25 25 -19 14z"/>
<path d="M894 3599 c-19 -22 -19 -22 3 -10 24 12 39 31 25 31 -5 0 -17 -10
-28 -21z"/>
<path d="M2088 3588 c2 -10 6 -18 7 -18 1 0 5 8 7 18 3 11 0 19 -7 19 -7 0
-10 -8 -7 -19z"/>
<path d="M4720 3544 c18 -25 34 -43 37 -40 3 3 -6 19 -21 36 -14 17 -26 36
-26 41 0 5 -5 9 -10 9 -6 0 3 -21 20 -46z"/>
<path d="M1090 3560 c-9 -6 -10 -10 -3 -10 6 0 15 5 18 10 8 12 4 12 -15 0z"/>
<path d="M1875 3514 c-9 -15 -12 -23 -5 -19 8 5 11 3 8 -6 -3 -8 -10 -13 -16
-12 -6 2 -9 -4 -5 -13 5 -12 8 -12 20 6 8 11 12 24 9 29 -3 5 1 11 9 15 8 3
15 10 15 16 0 18 -17 10 -35 -16z"/>
<path d="M1049 3513 c-13 -16 -12 -17 4 -4 9 7 17 15 17 17 0 8 -8 3 -21 -13z"/>
<path d="M2092 3500 c0 -14 2 -19 5 -12 2 6 2 18 0 25 -3 6 -5 1 -5 -13z"/>
<path d="M1016 3473 c-6 -14 -5 -15 5 -6 7 7 10 15 7 18 -3 3 -9 -2 -12 -12z"/>
<path d="M2806 3477 c3 -10 9 -15 12 -12 3 3 0 11 -7 18 -10 9 -11 8 -5 -6z"/>
<path d="M941 3453 c-10 -26 -10 -27 4 -9 8 11 15 23 15 28 0 15 -7 8 -19 -19z"/>
<path d="M4815 3460 c10 -11 20 -20 23 -20 3 0 -3 9 -13 20 -10 11 -20 20 -23
20 -3 0 3 -9 13 -20z"/>
<path d="M5453 3450 c-67 -6 -93 -14 -82 -24 3 -3 22 -1 44 4 62 15 144 12
181 -6 42 -20 58 -11 17 9 -41 21 -78 25 -160 17z"/>
<path d="M2892 3425 c12 -14 24 -23 26 -20 6 6 -28 45 -39 45 -5 0 1 -11 13
-25z"/>
<path d="M4100 3446 c0 -2 8 -10 18 -17 15 -13 16 -12 3 4 -13 16 -21 21 -21
13z"/>
<path d="M1044 3428 c-4 -7 -14 -23 -22 -35 -9 -15 -10 -23 -3 -23 12 0 45 59
38 67 -3 2 -8 -2 -13 -9z"/>
<path d="M2840 3431 c0 -5 7 -11 15 -15 8 -3 15 -1 15 3 0 5 -7 11 -15 15 -8
3 -15 1 -15 -3z"/>
<path d="M2814 3402 c17 -18 34 -32 38 -32 15 0 0 18 -35 41 l-32 22 29 -31z"/>
<path d="M3190 3419 c0 -5 5 -7 10 -4 6 3 10 8 10 11 0 2 -4 4 -10 4 -5 0 -10
-5 -10 -11z"/>
<path d="M4880 3405 c13 -14 26 -25 28 -25 3 0 -5 11 -18 25 -13 14 -26 25
-28 25 -3 0 5 -11 18 -25z"/>
<path d="M1428 3413 c-2 -5 -1 -33 3 -63 l6 -55 1 63 c2 57 -1 74 -10 55z"/>
<path d="M1494 3405 c3 -11 -5 -43 -19 -75 -22 -47 -22 -52 -5 -32 30 35 47
99 31 115 -11 10 -12 8 -7 -8z"/>
<path d="M4680 3416 c0 -2 8 -10 18 -17 15 -13 16 -12 3 4 -13 16 -21 21 -21
13z"/>
<path d="M3482 3403 c-10 -4 -10 -8 -1 -19 16 -19 41 -18 37 3 -3 18 -16 24
-36 16z"/>
<path d="M4830 3380 c12 -16 24 -30 26 -30 3 0 -4 14 -16 30 -12 17 -24 30
-26 30 -3 0 4 -13 16 -30z"/>
<path d="M1171 3391 c-7 -5 -11 -13 -8 -18 4 -6 -5 -25 -18 -43 -28 -38 -33
-59 -10 -40 20 16 20 -1 0 -66 -18 -60 -18 -59 -1 -45 7 6 21 44 31 84 19 79
34 116 34 82 0 -36 -17 -160 -24 -180 l-7 -20 15 20 c17 23 41 186 32 216 -7
20 -22 24 -44 10z"/>
<path d="M2870 3391 c0 -5 7 -11 15 -15 9 -3 15 0 15 9 0 8 -7 15 -15 15 -8 0
-15 -4 -15 -9z"/>
<path d="M2946 3365 c4 -8 11 -15 16 -15 6 0 5 6 -2 15 -7 8 -14 15 -16 15 -2
0 -1 -7 2 -15z"/>
<path d="M4996 3295 c42 -49 86 -109 96 -133 38 -84 31 -243 -10 -235 -6 2 -9
-4 -6 -11 4 -9 -3 -16 -18 -19 -18 -3 -17 -5 8 -6 27 -1 33 4 47 37 24 58 28
113 12 176 -18 69 -50 118 -140 211 l-66 70 77 -90z"/>
<path d="M2794 3348 c-4 -7 -3 -8 4 -4 7 4 12 3 12 -2 0 -5 9 -12 20 -15 26
-7 25 -3 -4 17 -18 11 -27 13 -32 4z"/>
<path d="M3543 3343 c-16 -6 -17 -33 -2 -33 17 0 49 20 49 30 0 10 -26 12 -47
3z"/>
<path d="M2934 3315 c16 -14 32 -23 35 -19 7 6 -39 43 -54 44 -5 0 3 -11 19
-25z"/>
<path d="M2874 3305 c11 -8 22 -12 25 -9 6 6 -19 24 -34 24 -5 -1 -1 -7 9 -15z"/>
<path d="M4892 3275 c12 -24 23 -43 26 -41 4 5 -36 86 -43 86 -3 0 5 -20 17
-45z"/>
<path d="M3010 3303 c0 -13 80 -81 125 -107 30 -17 30 -17 5 1 -25 19 -31 24
-93 82 -21 19 -37 30 -37 24z"/>
<path d="M2110 3291 c-10 -7 1 -10 35 -9 28 0 65 -3 84 -7 24 -6 32 -4 29 5
-5 15 -127 24 -148 11z"/>
<path d="M2937 3269 c7 -7 15 -10 18 -7 3 3 -2 9 -12 12 -14 6 -15 5 -6 -5z"/>
<path d="M3550 3270 c0 -5 4 -10 9 -10 6 0 13 5 16 10 3 6 -1 10 -9 10 -9 0
-16 -4 -16 -10z"/>
<path d="M2020 3244 c0 -8 5 -12 10 -9 6 4 8 11 5 16 -9 14 -15 11 -15 -7z"/>
<path d="M2165 3247 c-22 -5 -49 -13 -60 -17 -11 -4 -45 -15 -75 -25 -56 -18
-70 -29 -70 -54 0 -11 4 -10 19 3 15 13 20 14 24 4 3 -7 6 -3 6 8 1 21 18 34
47 34 12 0 12 -4 -2 -25 -16 -24 -16 -25 2 -18 17 6 17 5 5 -10 -7 -9 -17 -15
-21 -12 -10 6 -26 -14 -35 -45 -8 -25 -7 -25 13 -7 12 11 18 25 15 35 -4 9 -2
13 5 9 6 -4 27 3 47 15 l37 21 -7 -23 c-6 -20 -5 -22 14 -16 11 3 31 8 44 11
l22 6 -22 -12 c-12 -6 -23 -19 -26 -29 -4 -15 0 -17 22 -10 14 4 46 17 71 29
24 11 50 21 57 21 7 0 13 6 14 13 8 86 9 84 -66 96 -22 4 -58 2 -80 -2z m105
-67 c-8 -5 -22 -9 -30 -9 -10 0 -8 3 5 9 27 12 43 12 25 0z"/>
<path d="M844 3204 c-8 -20 -13 -39 -10 -42 3 -2 8 4 12 14 3 10 10 29 15 42
5 12 6 22 3 22 -3 0 -12 -16 -20 -36z"/>
<path d="M4925 3198 c4 -13 11 -27 16 -33 5 -5 4 5 -2 23 -12 36 -24 44 -14
10z"/>
<path d="M2397 3189 c4 -13 8 -18 11 -10 2 7 -1 18 -6 23 -8 8 -9 4 -5 -13z"/>
<path d="M3088 3167 c12 -13 22 -28 22 -33 0 -6 11 -20 25 -32 32 -28 32 -37
-5 -52 -31 -13 -43 -37 -13 -26 16 6 16 6 0 -12 -16 -17 -15 -19 13 -35 16
-10 31 -13 34 -8 4 5 0 12 -6 15 -7 2 -2 4 12 3 18 -1 25 3 24 16 -2 21 -6 21
86 -4 41 -11 102 -20 135 -20 89 0 89 4 0 11 -133 12 -195 30 -195 56 0 8 -8
14 -17 15 -11 0 -13 3 -5 6 7 2 28 -4 47 -16 19 -11 35 -16 35 -11 0 16 94 12
116 -5 25 -19 40 -19 24 0 -11 13 -6 15 35 15 27 0 46 2 43 5 -3 3 -58 6 -121
6 -87 1 -124 5 -148 17 -43 22 -49 42 -12 42 27 1 27 1 8 16 -12 9 -21 11 -23
4 -5 -13 -42 -13 -42 0 0 6 -6 10 -13 10 -8 0 -22 9 -32 20 -10 11 -25 20 -33
20 -12 0 -10 -5 6 -23z"/>
<path d="M3445 3160 c3 -5 8 -10 11 -10 2 0 4 5 4 10 0 6 -5 10 -11 10 -5 0
-7 -4 -4 -10z"/>
<path d="M3581 3156 c13 -14 101 -13 106 1 3 9 -12 12 -56 10 -37 -1 -56 -6
-50 -11z"/>
<path d="M4471 3166 c2 -2 29 -6 59 -9 37 -4 50 -3 40 3 -14 9 -109 15 -99 6z"/>
<path d="M4590 3159 c0 -5 5 -7 10 -4 6 3 10 8 10 11 0 2 -4 4 -10 4 -5 0 -10
-5 -10 -11z"/>
<path d="M4847 3105 c9 -36 13 -69 9 -72 -3 -4 -19 5 -34 19 -26 25 -103 68
-119 68 -4 0 17 -14 47 -31 56 -30 100 -66 100 -80 0 -5 -7 -5 -17 -2 -11 4
-14 3 -9 -5 4 -7 16 -12 27 -12 15 0 19 7 19 36 0 39 -19 124 -30 137 -4 5 -1
-21 7 -58z"/>
<path d="M3876 3141 c-3 -4 -34 -14 -68 -20 -35 -7 -74 -17 -87 -22 -16 -7
-28 -6 -37 2 -7 6 -19 9 -26 6 -7 -3 -4 -6 7 -6 15 -1 17 -3 6 -10 -9 -6 -4
-10 18 -13 17 -2 31 -1 31 3 0 6 79 27 130 34 25 4 50 17 50 26 0 11 -17 12
-24 0z"/>
<path d="M4255 3120 c3 -5 8 -10 11 -10 2 0 4 5 4 10 0 6 -5 10 -11 10 -5 0
-7 -4 -4 -10z"/>
<path d="M3383 3113 c15 -2 39 -2 55 0 15 2 2 4 -28 4 -30 0 -43 -2 -27 -4z"/>
<path d="M4130 3109 c0 -8 121 -39 147 -38 10 0 -2 8 -27 16 -37 13 -41 17
-25 23 12 4 -4 7 -37 6 -32 0 -58 -3 -58 -7z"/>
<path d="M3340 3101 c0 -5 5 -13 10 -16 6 -3 10 -2 10 4 0 5 -4 13 -10 16 -5
3 -10 2 -10 -4z"/>
<path d="M3518 3103 c6 -2 18 -2 25 0 6 3 1 5 -13 5 -14 0 -19 -2 -12 -5z"/>
<path d="M1656 3085 c4 -8 8 -15 10 -15 2 0 4 7 4 15 0 8 -4 15 -10 15 -5 0
-7 -7 -4 -15z"/>
<path d="M4041 3083 c-14 -6 40 -34 63 -32 6 0 1 4 -12 10 -13 5 -20 13 -17
19 7 11 -11 12 -34 3z"/>
<path d="M2080 3071 c-8 -6 -17 -8 -22 -5 -4 2 -12 -5 -18 -16 -9 -17 -8 -20
10 -17 12 2 25 8 28 14 4 5 16 15 27 21 14 8 15 11 5 12 -8 0 -22 -4 -30 -9z"/>
<path d="M2448 3061 c-7 -12 -18 -21 -25 -21 -6 0 -15 -5 -19 -12 -5 -8 -2 -9
12 -4 10 4 24 8 29 9 11 2 28 37 21 44 -3 3 -11 -4 -18 -16z"/>
<path d="M3618 3073 c6 -2 18 -2 25 0 6 3 1 5 -13 5 -14 0 -19 -2 -12 -5z"/>
<path d="M3543 3063 c9 -2 25 -2 35 0 9 3 1 5 -18 5 -19 0 -27 -2 -17 -5z"/>
<path d="M3946 3062 c-5 -9 62 -37 70 -29 3 2 -7 8 -23 11 -21 6 -24 9 -12 17
11 7 9 9 -8 9 -12 0 -24 -4 -27 -8z"/>
<path d="M3857 3045 c-99 -21 -101 -40 -7 -70 30 -10 59 -21 65 -26 5 -5 17
-9 26 -9 15 0 16 -5 8 -32 -5 -18 -9 -45 -9 -60 0 -15 -4 -30 -10 -33 -14 -9
-70 23 -70 40 0 8 -6 12 -14 9 -9 -3 -38 17 -73 51 -32 31 -66 61 -75 66 -10
5 -18 15 -18 22 0 7 -9 13 -20 13 -18 0 -18 -1 -2 -20 17 -20 17 -20 -12 -2
-20 13 -31 15 -39 7 -8 -8 -6 -11 7 -11 14 0 82 -40 121 -72 6 -5 35 -27 65
-49 30 -22 63 -53 73 -69 21 -33 20 -34 -17 -20 -14 5 -26 6 -26 1 0 -4 38
-20 83 -35 66 -22 96 -26 143 -22 32 2 89 5 126 5 62 1 67 2 63 22 -2 11 3 38
11 60 12 30 22 39 39 39 24 0 24 0 8 -45 -8 -25 -19 -45 -25 -45 -5 0 -6 -4
-3 -10 3 -5 0 -10 -7 -10 -10 0 -9 -3 2 -9 16 -11 33 -4 25 10 -4 5 4 10 17
10 18 1 19 2 5 6 -13 3 -16 10 -12 21 4 10 12 29 17 45 6 16 17 27 29 27 23 0
23 -7 5 -51 -7 -19 -11 -39 -9 -46 2 -6 -6 -13 -19 -16 -20 -4 -20 -4 5 -6 15
0 27 4 28 12 3 50 28 109 43 100 6 -4 19 -6 29 -5 15 3 16 0 5 -25 -6 -15 -15
-32 -18 -38 -16 -23 -19 -45 -7 -45 7 0 23 19 36 43 19 33 21 39 6 27 -17 -14
-18 -14 -6 8 7 12 16 20 21 17 5 -3 13 3 19 12 8 14 10 15 10 3 1 -8 -8 -26
-19 -40 -11 -14 -20 -36 -20 -49 l0 -24 26 24 26 24 -7 -27 c-12 -46 1 -32 39
46 40 80 65 98 154 111 24 4 41 9 38 12 -7 7 -144 -16 -205 -35 -39 -12 -55
-14 -58 -5 -3 8 -13 6 -34 -5 -24 -14 -31 -15 -38 -3 -5 8 -11 9 -15 3 -3 -5
-29 -10 -57 -10 -39 0 -49 3 -45 14 3 8 8 20 11 27 4 9 -11 13 -52 14 -78 3
-125 12 -118 24 4 5 -8 9 -25 9 -17 0 -29 -4 -26 -9 3 -4 -7 -6 -22 -3 -24 5
-24 6 -7 13 19 7 19 8 -2 8 -31 1 -133 41 -133 52 0 5 -7 9 -15 9 -8 0 -15 -4
-15 -10 0 -5 -4 -10 -10 -10 -21 0 -9 17 28 38 42 24 40 25 -41 7z m-32 -45
c3 -6 -1 -7 -9 -4 -18 7 -21 14 -7 14 6 0 13 -4 16 -10z m114 -26 c14 -3 32
-9 40 -14 13 -8 12 -9 -7 -10 -25 0 -92 25 -92 36 0 3 8 3 18 -1 9 -4 28 -9
41 -11z m158 -136 c-3 -7 -5 -2 -5 12 0 14 2 19 5 13 2 -7 2 -19 0 -25z m447
10 c-4 -7 -14 -22 -23 -32 -9 -11 -10 -16 -3 -12 6 4 12 2 12 -3 0 -6 -9 -11
-20 -11 -19 0 -19 1 -2 35 9 19 23 35 30 35 8 0 10 -5 6 -12z m-580 -33 c-4
-8 -8 -15 -10 -15 -2 0 -4 7 -4 15 0 8 4 15 10 15 5 0 7 -7 4 -15z m-48 -32
c-7 -7 -26 7 -26 19 0 6 6 6 15 -2 9 -7 13 -15 11 -17z m44 -13 c0 -5 -7 -10
-16 -10 -8 0 -12 5 -9 10 3 6 10 10 16 10 5 0 9 -4 9 -10z"/>
<path d="M1073 2965 c-52 -52 -55 -57 -13 -19 30 28 64 55 75 61 11 7 17 15
13 19 -4 4 -38 -24 -75 -61z"/>
<path d="M4038 3023 c7 -3 16 -2 19 1 4 3 -2 6 -13 5 -11 0 -14 -3 -6 -6z"/>
<path d="M3970 3012 c8 -5 26 -13 40 -16 17 -5 20 -4 10 2 -8 5 -26 13 -40 16
-17 5 -20 4 -10 -2z"/>
<path d="M4268 3013 c7 -3 16 -2 19 1 4 3 -2 6 -13 5 -11 0 -14 -3 -6 -6z"/>
<path d="M2251 2986 c-7 -8 -8 -17 -3 -20 6 -3 13 1 16 10 9 23 2 28 -13 10z"/>
<path d="M3514 2989 c-2 -4 14 -9 36 -11 22 -2 40 -1 40 3 0 9 -70 17 -76 8z"/>
<path d="M4188 2993 c7 -3 16 -2 19 1 4 3 -2 6 -13 5 -11 0 -14 -3 -6 -6z"/>
<path d="M4388 2993 c7 -3 16 -2 19 1 4 3 -2 6 -13 5 -11 0 -14 -3 -6 -6z"/>
<path d="M3250 2986 c0 -2 8 -10 18 -17 15 -13 16 -12 3 4 -13 16 -21 21 -21
13z"/>
<path d="M4088 2973 c7 -3 16 -2 19 1 4 3 -2 6 -13 5 -11 0 -14 -3 -6 -6z"/>
<path d="M4343 2973 c9 -2 23 -2 30 0 6 3 -1 5 -18 5 -16 0 -22 -2 -12 -5z"/>
<path d="M1326 2955 c-9 -26 -7 -32 5 -12 6 10 9 21 6 23 -2 3 -7 -2 -11 -11z"/>
<path d="M4158 2953 c6 -2 18 -2 25 0 6 3 1 5 -13 5 -14 0 -19 -2 -12 -5z"/>
<path d="M5205 2950 c17 -4 44 -8 60 -8 l30 0 -30 8 c-16 4 -43 8 -60 8 l-30
0 30 -8z"/>
<path d="M1944 2942 c4 -7 16 -12 27 -12 11 0 27 -7 35 -15 9 -8 30 -15 47
-15 31 0 31 0 9 -16 -12 -8 -22 -21 -22 -28 0 -20 -32 -44 -37 -28 -6 15 -23
16 -23 1 0 -6 15 -30 34 -53 24 -28 32 -46 26 -55 -4 -8 -6 -19 -4 -25 2 -6
-12 -28 -31 -50 -25 -27 -33 -44 -29 -60 5 -22 -6 -101 -46 -325 -12 -62 -18
-116 -15 -119 3 -3 5 6 5 19 0 17 3 20 9 10 5 -7 6 -21 4 -31 -3 -10 0 -21 6
-25 6 -3 10 -3 9 2 -5 17 13 215 22 236 7 17 9 10 11 -33 2 -51 3 -49 9 25 4
48 7 63 8 38 2 -53 19 -56 25 -5 l4 37 1 -42 c1 -24 -1 -43 -6 -43 -9 0 -32
-95 -32 -133 0 -15 5 -27 12 -27 9 0 9 -3 1 -11 -6 -6 -9 -18 -6 -25 3 -8 -6
-48 -18 -90 l-24 -77 -6 44 c-6 42 -6 41 -7 -17 -2 -78 9 -216 17 -208 10 10
11 145 0 139 -5 -3 -6 1 -3 9 3 9 10 14 14 11 4 -3 11 12 15 32 5 27 9 33 16
22 5 -8 9 -27 9 -42 0 -16 4 -36 9 -46 7 -12 3 -44 -11 -101 -16 -64 -23 -79
-30 -64 -5 12 -6 4 -2 -22 3 -24 -1 -58 -10 -85 -17 -47 -22 -204 -7 -195 5 3
9 36 10 73 0 59 18 154 20 113 2 -27 22 -92 28 -87 3 3 -3 37 -13 76 l-18 70
34 106 c19 58 37 105 40 105 4 0 8 -28 9 -62 1 -35 10 -133 20 -218 14 -132
15 -163 4 -210 -17 -72 -15 -99 3 -35 l14 50 -4 -95 c-2 -52 -7 -104 -12 -114
-5 -14 -4 -17 4 -12 9 5 12 -14 13 -71 2 -101 3 -106 11 -118 8 -13 23 -87 20
-103 -2 -6 1 -12 6 -12 4 0 16 -17 26 -37 36 -78 79 -134 121 -158 45 -27 55
-30 55 -16 0 5 -11 12 -25 15 -60 15 -173 184 -162 242 2 13 1 21 -3 19 -5 -3
-13 10 -20 28 -15 42 -26 297 -13 306 5 3 13 31 16 61 3 37 2 48 -4 35 -6 -13
-7 4 -4 50 9 113 16 156 25 150 4 -3 11 12 15 33 6 29 9 33 14 18 4 -10 -3
-59 -16 -110 -27 -108 -28 -144 -3 -66 10 30 18 49 19 42 2 -23 21 -2 21 24 0
30 16 31 26 2 11 -33 6 -83 -17 -167 -11 -40 -18 -76 -15 -78 5 -5 26 64 26
87 1 33 19 -15 25 -65 5 -37 1 -65 -14 -109 -26 -74 -21 -85 6 -14 l20 52 17
-50 c15 -46 15 -54 1 -93 -8 -24 -15 -49 -14 -55 0 -6 7 7 15 28 8 22 16 41
18 43 7 7 96 -86 96 -100 0 -16 44 -109 68 -144 10 -15 33 -51 50 -80 l31 -52
-26 10 c-14 5 -28 8 -30 5 -2 -2 19 -12 47 -21 40 -13 68 -35 134 -101 75 -76
80 -84 57 -84 -50 0 -97 20 -131 55 -33 34 -50 43 -50 28 0 -5 16 -18 36 -31
42 -27 39 -39 -6 -24 -17 6 -28 7 -26 3 3 -5 25 -13 48 -19 28 -7 55 -24 79
-49 61 -66 166 -200 195 -249 15 -26 30 -42 32 -36 2 7 -21 47 -52 90 -57 79
-79 105 -150 180 l-41 43 65 -6 c36 -4 76 -15 89 -24 40 -28 86 -49 94 -44 14
9 7 21 -18 27 -55 14 -255 168 -255 197 0 5 23 -5 50 -21 28 -17 54 -30 57
-30 3 0 30 -16 60 -36 33 -22 75 -39 111 -46 l57 -11 19 -60 c21 -65 148 -323
171 -346 26 -27 27 -3 2 31 -62 82 -125 266 -133 388 -3 41 -7 80 -9 87 -8 23
12 22 23 -1 6 -13 20 -26 31 -29 24 -6 29 8 7 16 -37 14 -65 139 -40 178 12
19 86 -131 86 -176 1 -28 2 -32 5 -12 5 34 9 34 40 -3 13 -17 33 -30 44 -30
18 0 18 1 -1 20 -11 11 -23 20 -26 20 -15 0 -43 48 -44 73 0 53 49 20 51 -35
2 -30 2 -31 6 -6 5 32 10 33 37 13 10 -8 49 -24 85 -36 36 -12 77 -30 90 -40
25 -20 51 -25 51 -10 0 5 -6 12 -12 14 -7 3 -3 6 10 6 42 2 22 21 -21 21 -39
0 -48 5 -83 43 -110 118 -129 153 -101 190 11 16 14 16 47 -6 66 -45 136 -62
252 -62 100 0 135 7 113 23 -13 9 -37 61 -40 89 -2 11 -6 30 -9 41 -8 23 -235
247 -243 238 -3 -3 8 -18 24 -33 113 -107 181 -176 196 -203 20 -33 8 -40 -22
-13 -79 74 -115 112 -132 140 -30 48 -55 41 -29 -8 14 -24 3 -24 -35 1 -16 11
-37 20 -45 20 -8 0 10 -14 40 -31 30 -17 75 -51 100 -75 25 -24 64 -53 88 -66
38 -20 94 -90 81 -102 -11 -10 -127 -13 -182 -6 -77 11 -191 65 -183 87 4 10
2 13 -8 10 -9 -4 -31 12 -55 38 -37 40 -40 47 -30 71 10 29 5 59 -10 50 -4 -3
-6 -17 -3 -31 8 -44 -13 -27 -43 35 -16 33 -30 58 -32 56 -5 -5 17 -54 44 -99
16 -24 21 -45 17 -61 -3 -14 1 -34 10 -48 13 -21 13 -29 -2 -80 -17 -58 -32
-76 -32 -38 0 11 -4 20 -9 20 -15 0 -61 87 -55 104 4 10 1 16 -8 16 -19 0 -73
114 -63 130 5 8 4 11 -3 6 -7 -4 -15 14 -23 49 -7 30 -15 55 -19 55 -8 0 -24
58 -21 78 1 6 -2 12 -7 12 -17 0 -57 166 -49 206 2 13 0 27 -4 30 -5 3 -9 13
-9 22 1 15 2 15 14 -1 22 -28 27 -5 10 49 -13 44 -12 103 2 126 10 16 42 -29
59 -82 10 -30 31 -79 46 -109 16 -30 30 -70 30 -90 2 -30 3 -32 6 -8 l4 27 43
-35 c24 -19 48 -35 54 -35 6 0 16 -18 22 -41 6 -22 20 -49 31 -60 23 -23 24
-30 5 -23 -26 10 -29 -18 -4 -40 23 -23 32 -21 51 10 4 7 -7 29 -23 49 -17 21
-29 40 -27 42 7 6 122 -41 142 -58 98 -85 145 -115 145 -91 0 5 -15 15 -32 24
-52 25 -152 119 -137 129 10 6 10 13 -1 36 -11 23 -14 25 -17 10 -4 -15 -9
-14 -42 13 -40 31 -100 133 -122 208 -12 41 -11 46 21 107 19 36 37 62 40 58
3 -5 21 -53 39 -109 24 -75 44 -115 78 -157 24 -31 49 -57 55 -57 10 0 1 13
-45 65 -18 19 -67 108 -67 120 0 3 3 5 8 5 4 0 15 -21 26 -46 32 -77 29 -41
-3 42 -38 98 -39 118 -2 40 15 -32 31 -54 34 -49 4 6 -11 47 -33 92 -31 64
-40 94 -40 134 0 79 15 90 34 26 25 -87 73 -203 85 -207 15 -5 14 0 -15 65
-14 32 -32 75 -40 96 l-14 38 56 -58 c35 -36 58 -53 61 -45 3 7 0 19 -6 26 -6
7 -9 20 -6 28 3 8 -3 30 -14 49 -10 19 -22 49 -26 66 -4 18 -11 36 -17 39 -7
5 -9 -2 -6 -20 7 -33 -9 -34 -24 -2 -11 26 -38 43 -38 25 0 -5 7 -21 16 -35 9
-13 14 -27 11 -30 -9 -9 -37 52 -37 81 0 14 7 40 16 56 16 32 20 32 81 13 10
-3 5 2 -12 12 -16 9 -32 18 -34 20 -6 5 32 154 41 160 4 3 8 -2 8 -10 0 -9 4
-16 10 -16 5 0 17 -15 27 -32 12 -24 18 -28 20 -17 3 14 12 12 61 -14 31 -17
60 -35 64 -41 5 -7 8 -7 8 2 0 6 1 15 3 19 1 3 -9 8 -23 10 -62 9 -160 98
-160 146 0 9 -5 17 -11 17 -7 0 -9 -10 -5 -25 5 -20 3 -25 -14 -25 -11 0 -20
-5 -20 -11 0 -5 -4 -8 -9 -4 -5 3 -16 -3 -23 -12 -7 -10 -17 -18 -23 -19 -5
-1 -20 -5 -32 -9 -27 -9 -31 -50 -7 -59 9 -4 14 -9 11 -12 -9 -9 -48 22 -39
31 4 5 -9 -1 -29 -13 -48 -29 -77 -28 -111 5 -28 27 -41 14 -13 -13 20 -20 20
-41 0 -24 -12 10 -16 9 -21 -6 -10 -33 -19 -47 -29 -43 -6 2 -9 9 -7 16 1 6
-2 14 -8 18 -5 3 -10 24 -10 46 0 21 -4 39 -10 39 -5 0 -10 -11 -10 -25 0 -14
-4 -25 -10 -25 -5 0 -10 14 -10 30 0 22 -5 30 -18 30 -60 0 -77 -66 -82 -325
l-2 -90 -10 60 c-5 33 -7 85 -4 115 8 90 24 204 32 225 7 18 5 18 -19 -4 -25
-23 -26 -23 -20 -2 3 11 9 21 13 21 6 0 30 44 30 57 0 3 -8 2 -17 -1 -9 -4
-20 -1 -25 6 -6 10 -10 7 -14 -9 -4 -13 -11 -23 -16 -23 -5 0 -7 9 -3 20 5 16
3 19 -12 13 -10 -3 -24 -11 -31 -16 -7 -5 -15 -7 -19 -3 -3 3 -15 -2 -26 -11
-19 -17 -20 -17 -8 4 6 12 11 30 11 40 -1 11 -6 6 -15 -14 -21 -50 -36 -40
-18 13 14 42 14 46 -3 59 -24 18 -44 19 -44 3 -1 -8 -8 -5 -18 7 -9 11 -42 31
-72 45 -30 14 -57 28 -60 32 -3 4 -17 11 -30 16 -34 13 -143 96 -173 132 -21
25 -26 27 -41 14 -9 -8 -11 -9 -6 -2 6 7 10 18 10 25 0 19 -27 16 -34 -3 -4
-9 -9 -14 -12 -11 -3 3 2 17 11 31 21 32 10 34 -22 4 -13 -12 -23 -16 -23 -9
0 6 6 14 14 17 11 4 10 12 -7 39 -12 19 -27 34 -32 35 -11 0 -42 29 -79 75
l-23 29 26 21 c14 11 30 19 34 17 5 -1 26 10 46 25 20 15 39 29 44 29 4 1 12
2 17 3 15 2 12 19 -8 39 -19 19 -36 18 -61 -1 -15 -13 -83 -9 -92 4 -3 5 -23
13 -44 16 -27 4 -36 3 -31 -5z m191 -52 c-3 -5 -13 -10 -21 -10 -8 0 -14 -4
-14 -9 0 -5 -8 -12 -17 -15 -13 -5 -11 0 6 18 23 25 59 37 46 16z m-85 -274
c0 -16 -11 -32 -30 -46 -35 -25 -38 -15 -9 34 24 42 39 46 39 12z m35 -118
c-10 -102 -24 -120 -25 -31 0 75 6 103 22 103 6 0 7 -26 3 -72z m55 56 c0 -11
6 -14 20 -9 18 6 20 3 14 -21 -5 -19 -4 -25 4 -20 8 5 10 1 6 -9 -6 -14 -11
-12 -35 11 -28 27 -39 64 -19 64 6 0 10 -7 10 -16z m-103 -26 c-3 -8 -6 -5 -6
6 -1 11 2 17 5 13 3 -3 4 -12 1 -19z m213 7 c0 -3 -10 -16 -21 -28 -18 -18
-21 -19 -15 -4 3 10 6 23 6 28 0 5 7 9 15 9 8 0 15 -2 15 -5z m55 -50 c18 -13
18 -14 3 -15 -10 0 -18 5 -18 12 0 6 -3 9 -6 5 -8 -8 -33 16 -27 25 2 4 9 3
16 -2 7 -6 21 -17 32 -25z m-147 -8 c7 -9 4 -26 -11 -62 l-21 -49 -7 31 c-13
66 10 115 39 80z m-131 -44 c-3 -10 -5 -2 -5 17 0 19 2 27 5 18 2 -10 2 -26 0
-35z m170 5 c-3 -8 -6 -5 -6 6 -1 11 2 17 5 13 3 -3 4 -12 1 -19z m203 -22 c0
-2 -9 -6 -20 -9 -15 -4 -20 0 -20 14 0 17 3 18 20 9 11 -6 20 -12 20 -14z
m-303 -78 c-2 -18 -4 -6 -4 27 0 33 2 48 4 33 2 -15 2 -42 0 -60z m73 34 c0
-31 -27 -119 -39 -126 -15 -10 -11 80 5 116 20 45 34 49 34 10z m-91 -44 l-1
-53 -10 38 c-6 20 -7 44 -4 52 10 28 16 15 15 -37z m152 -105 c-13 -188 -33
-234 -27 -63 4 114 24 241 33 213 2 -6 0 -74 -6 -150z m292 133 c15 -4 27 -11
27 -16 0 -5 -7 -7 -15 -4 -9 4 -15 0 -15 -10 0 -8 -10 -20 -21 -27 -15 -8 -19
-8 -15 0 4 6 2 11 -3 11 -6 0 -11 -5 -11 -11 0 -5 -4 -7 -10 -4 -5 3 -10 19
-10 35 0 27 13 40 35 34 6 -1 22 -5 38 -8z m-326 -38 c-3 -7 -5 -2 -5 12 0 14
2 19 5 13 2 -7 2 -19 0 -25z m94 -29 c-5 -26 -9 -34 -10 -19 -1 27 9 73 15 67
2 -2 0 -23 -5 -48z m39 1 c-5 -22 -8 -27 -9 -13 -1 21 9 56 14 51 2 -2 0 -19
-5 -38z m-272 -60 l0 -25 -8 25 c-4 14 -8 39 -8 55 l0 30 8 -30 c4 -16 8 -41
8 -55z m536 74 c9 -3 16 -12 16 -20 0 -20 -13 -17 -28 6 -13 22 -12 23 12 14z
m44 -50 l-12 -29 -4 29 c-2 17 2 32 10 37 18 12 21 -3 6 -37z m-528 -16 c0
-56 -10 -62 -11 -7 -2 44 0 59 6 59 3 0 5 -23 5 -52z m59 -102 c-5 -27 -11
-51 -13 -54 -13 -12 -17 113 -5 160 l13 53 7 -55 c3 -30 2 -77 -2 -104z m-119
-2 c12 -38 13 -74 1 -74 -5 0 -11 17 -15 38 -15 100 -21 162 -17 174 3 7 9
-14 13 -47 5 -33 13 -74 18 -91z m466 64 c-18 -26 -22 -17 -5 14 6 11 13 17
16 15 3 -3 -2 -16 -11 -29z m-141 -55 c-4 -43 -12 -87 -16 -98 -9 -20 -5 56 7
138 10 67 16 39 9 -40z m36 24 c-10 -9 -11 -8 -5 6 3 10 9 15 12 12 3 -3 0
-11 -7 -18z m330 -34 c-9 -34 -17 -49 -19 -38 -3 19 23 95 32 95 2 0 -4 -26
-13 -57z m-674 25 c-3 -8 -6 -5 -6 6 -1 11 2 17 5 13 3 -3 4 -12 1 -19z m50 0
c-3 -8 -6 -5 -6 6 -1 11 2 17 5 13 3 -3 4 -12 1 -19z m654 -39 c-9 -28 -17
-46 -19 -40 -5 14 17 91 27 91 4 0 1 -23 -8 -51z m-441 -34 c-7 -36 -14 -64
-17 -62 -2 3 2 34 8 71 7 36 14 64 17 61 2 -2 -1 -34 -8 -70z m-185 -17 c4
-23 3 -38 -3 -38 -12 0 -22 34 -22 75 1 38 15 16 25 -37z m1045 53 c0 -15 -30
-41 -46 -41 -23 0 -16 18 14 34 33 18 32 18 32 7z m-709 -55 c-11 -25 -22 -46
-25 -46 -6 0 9 52 24 79 21 40 22 14 1 -33z m789 44 c0 -5 -5 -10 -11 -10 -5
0 -7 5 -4 10 3 6 8 10 11 10 2 0 4 -4 4 -10z m-22 -20 c37 -23 40 -38 12 -70
-19 -22 -21 -22 -40 -5 -11 10 -22 26 -25 36 -4 11 -11 17 -16 14 -15 -10 -10
7 8 27 20 22 21 22 61 -2z m-1071 -42 c-2 -13 -4 -5 -4 17 -1 22 1 32 4 23 2
-10 2 -28 0 -40z m713 26 c0 -8 -5 -12 -10 -9 -6 4 -8 11 -5 16 9 14 15 11 15
-7z m197 9 c-4 -4 5 -19 20 -35 15 -16 21 -28 14 -28 -8 0 -11 -6 -7 -17 4 -9
2 -30 -3 -47 -5 -17 -11 -58 -13 -92 l-4 -61 22 26 c11 14 30 51 42 81 12 30
21 50 21 44 1 -17 -61 -208 -69 -214 -4 -3 -9 -12 -12 -20 -3 -9 -11 3 -18 28
-11 35 -11 60 -2 126 7 45 11 102 11 127 -2 33 -3 37 -6 14 -7 -47 -21 -51
-29 -9 -9 45 -7 66 9 76 15 10 33 10 24 1z m-283 -35 c-4 -18 -6 -75 -6 -125
1 -63 -4 -103 -14 -125 -14 -31 -14 -24 -11 97 3 83 9 140 18 157 18 37 22 35
13 -4z m-407 0 c-3 -8 -6 -5 -6 6 -1 11 2 17 5 13 3 -3 4 -12 1 -19z m-352
-92 l-13 -31 -1 27 c-1 15 -5 38 -11 52 -5 14 -7 33 -4 41 4 11 11 5 25 -21
16 -32 16 -40 4 -68z m845 27 c0 -38 8 -114 18 -170 19 -112 16 -119 -17 -30
-26 71 -39 214 -22 245 6 12 14 22 16 22 3 0 5 -30 5 -67z m-554 1 c-4 -20
-10 -34 -13 -30 -3 3 -2 21 1 42 4 20 10 34 13 30 3 -3 2 -21 -1 -42z m289
-41 c-11 -143 -25 -186 -20 -63 4 101 12 150 22 150 3 0 2 -39 -2 -87z m405
61 c0 -8 -4 -12 -10 -9 -5 3 -10 10 -10 16 0 5 5 9 10 9 6 0 10 -7 10 -16z
m-573 -39 c-8 -29 -9 -39 0 -42 7 -3 9 -17 6 -39 -3 -21 0 -45 7 -60 11 -19
11 -37 1 -92 -19 -110 -34 -172 -40 -172 -3 0 -18 22 -32 48 -26 47 -26 49
-14 117 13 70 10 125 -6 125 -17 0 -9 26 19 60 16 19 37 49 47 67 24 41 28 37
12 -12z m494 -110 c16 -66 40 -154 54 -195 19 -60 29 -140 18 -140 -7 0 -44
86 -66 155 -37 114 -55 238 -47 320 l2 20 5 -20 c3 -11 18 -74 34 -140z m-218
91 c15 2 17 -10 17 -95 0 -53 4 -102 9 -110 11 -17 31 -5 31 19 0 10 5 22 10
25 6 4 10 -8 10 -29 0 -19 3 -42 6 -51 5 -11 0 -18 -14 -22 -14 -3 -27 -24
-42 -64 -12 -32 -26 -59 -31 -59 -5 0 -4 -9 3 -20 7 -10 9 -22 6 -26 -13 -12
-27 7 -33 44 -3 20 -10 45 -16 55 -11 20 -5 314 7 362 l8 30 6 -30 c4 -20 11
-30 23 -29z m254 22 c-3 -7 -5 -2 -5 12 0 14 2 19 5 13 2 -7 2 -19 0 -25z
m-567 -3 c0 -25 -15 -24 -16 1 -1 13 2 21 7 18 5 -3 9 -11 9 -19z m-253 -32
c-3 -10 -5 -2 -5 17 0 19 2 27 5 18 2 -10 2 -26 0 -35z m367 22 c-8 -34 11
-32 30 3 14 25 15 20 16 -81 0 -92 -3 -113 -19 -133 l-19 -24 -11 47 c-17 78
-18 213 -1 213 6 0 8 -11 4 -25z m496 -23 c1 -20 5 -56 9 -80 5 -25 5 -40 0
-35 -10 10 -29 103 -29 140 0 14 4 21 10 18 6 -3 10 -23 10 -43z m40 -28 c0
-21 -4 -33 -10 -29 -5 3 -10 22 -10 41 0 21 4 33 10 29 6 -3 10 -22 10 -41z
m-946 -11 c19 -57 19 -53 0 -53 -12 0 -14 -5 -9 -17 9 -21 9 -47 0 -83 -6 -23
-5 -23 7 -7 11 15 12 -1 8 -97 -3 -63 -8 -117 -11 -120 -6 -7 -10 23 -29 228
-10 107 -6 196 10 196 5 0 15 -21 24 -47z m372 -11 c-12 -11 -17 7 -9 34 l8
29 3 -28 c2 -16 1 -31 -2 -35z m161 -109 c-2 -32 -3 -6 -3 57 0 63 1 89 3 58
2 -32 2 -84 0 -115z m-317 137 c0 -11 -4 -20 -10 -20 -5 0 -10 9 -10 20 0 11
5 20 10 20 6 0 10 -9 10 -20z m851 -3 c-10 -9 -11 -8 -5 6 3 10 9 15 12 12 3
-3 0 -11 -7 -18z m-935 -34 c-3 -8 -6 -19 -6 -24 0 -6 -4 -7 -10 -4 -5 3 -10
17 -10 30 0 18 4 23 16 18 8 -3 13 -12 10 -20z m81 -35 c-3 -8 -6 -5 -6 6 -1
11 2 17 5 13 3 -3 4 -12 1 -19z m1027 -4 c5 -14 4 -15 -9 -4 -17 14 -19 20 -6
20 5 0 12 -7 15 -16z m-198 -60 c-14 -37 -32 -74 -41 -83 -11 -11 -7 4 11 44
14 33 30 70 35 83 5 12 11 22 14 22 2 0 -6 -30 -19 -66z m-949 24 c-3 -8 -6
-5 -6 6 -1 11 2 17 5 13 3 -3 4 -12 1 -19z m157 -54 c-7 -67 -8 -68 -20 -39
-19 43 -17 86 3 101 10 7 19 11 21 9 1 -1 0 -33 -4 -71z m506 -27 c-8 -21 -9
-21 -9 4 -1 15 -3 42 -6 60 l-5 34 14 -38 c10 -25 12 -45 6 -60z m-601 49 c0
-14 -2 -16 -6 -6 -3 8 -10 21 -16 28 -7 9 -6 11 7 6 9 -3 16 -16 15 -28z m281
-141 c17 -35 30 -79 30 -98 0 -43 17 -126 30 -147 16 -26 20 -5 6 35 -7 22
-16 68 -20 103 -5 60 -5 62 14 52 11 -6 24 -19 30 -31 6 -11 16 -17 21 -13 6
3 21 -7 35 -22 23 -24 24 -28 10 -36 -10 -6 -16 -23 -16 -49 0 -51 27 -234 42
-279 18 -58 99 -223 123 -252 13 -15 25 -33 28 -40 2 -7 8 -9 13 -5 5 5 -2 27
-15 50 l-24 42 60 -55 c45 -42 59 -61 58 -80 -1 -14 0 -19 2 -12 2 6 9 12 14
12 10 0 13 -26 13 -152 1 -75 -1 -88 -16 -88 -12 0 -17 12 -20 51 -1 27 0 53
3 57 4 4 3 27 -1 52 -5 29 -8 35 -9 18 -2 -45 -19 -42 -74 15 -58 60 -139 211
-159 296 -13 59 -34 70 -23 14 9 -50 82 -202 135 -280 22 -34 56 -71 74 -82
33 -21 46 -53 46 -119 0 -19 -4 -22 -27 -16 -65 14 -95 26 -83 34 8 5 -7 14
-39 25 -33 11 -58 27 -72 46 -20 29 -21 31 -3 44 17 12 17 13 -7 8 -20 -4 -28
1 -37 21 -13 29 -8 31 28 11 29 -16 90 -20 90 -5 0 6 -15 10 -33 10 -74 0
-157 86 -227 235 -42 88 -90 224 -90 255 0 18 5 16 46 -15 50 -38 52 -39 74
-25 11 7 9 11 -12 19 -31 12 -80 80 -126 175 -33 70 -32 112 3 60 45 -69 164
-174 197 -174 18 0 6 18 -15 24 -13 3 -39 20 -58 38 -19 18 -31 30 -25 26 33
-26 20 1 -31 60 -86 98 -83 93 -72 137 5 22 16 74 25 115 24 120 26 122 41 56
7 -32 27 -86 43 -121z m79 42 c1 -48 14 -85 35 -99 8 -5 7 -8 -1 -8 -27 0 -46
51 -49 128 -3 53 -1 69 5 52 5 -14 9 -47 10 -73z m-317 58 c3 -13 1 -22 -3
-19 -9 5 -13 44 -5 44 2 0 6 -11 8 -25z m-109 -5 c3 -11 1 -20 -4 -20 -5 0 -9
9 -9 20 0 11 2 20 4 20 2 0 6 -9 9 -20z m399 -45 c4 -75 -6 -87 -16 -19 -8 64
-8 84 3 84 5 0 11 -29 13 -65z m405 43 c-3 -8 -6 -5 -6 6 -1 11 2 17 5 13 3
-3 4 -12 1 -19z m-440 -40 c-2 -13 -4 -5 -4 17 -1 22 1 32 4 23 2 -10 2 -28 0
-40z m-297 21 c0 -6 -4 -7 -10 -4 -5 3 -10 11 -10 16 0 6 5 7 10 4 6 -3 10
-11 10 -16z m747 -21 c-3 -8 -6 -5 -6 6 -1 11 2 17 5 13 3 -3 4 -12 1 -19z
m-686 -93 c-14 -39 -14 -58 -1 -50 6 3 10 18 10 33 0 15 4 22 9 17 15 -18 50
-136 45 -153 -4 -12 -3 -13 3 -4 7 9 14 2 26 -23 9 -19 13 -35 8 -35 -15 0
-22 -32 -10 -47 19 -22 3 -27 -23 -7 -30 23 -88 97 -88 113 0 6 -8 21 -18 32
-13 13 -19 35 -20 66 l0 47 19 -39 c10 -22 18 -48 19 -57 0 -10 4 -18 8 -18 4
0 13 -14 20 -32 8 -22 15 -29 22 -22 7 7 1 29 -21 71 -33 64 -61 166 -52 188
2 8 12 15 21 17 24 5 38 -55 23 -97z m-75 20 c-3 -11 -6 -31 -6 -45 l-1 -25
-10 24 c-5 14 -7 31 -4 38 2 8 0 11 -5 8 -11 -7 -13 15 -3 41 6 16 7 15 20 -2
8 -10 12 -28 9 -39z m545 -18 c-13 -13 -15 15 -3 53 7 24 7 23 10 -9 2 -18 -1
-38 -7 -44z m280 -32 c17 -35 29 -69 27 -76 -4 -12 -60 88 -73 130 -13 43 13
13 46 -54z m-241 -5 l-7 -55 -2 65 c0 36 3 60 8 55 4 -6 5 -35 1 -65z m-431
-45 c0 -18 -1 -17 -14 5 -20 34 -20 60 0 34 8 -10 14 -28 14 -39z m696 -72
c24 -21 33 -43 17 -43 -4 0 -26 17 -50 39 -37 34 -42 43 -41 82 l0 44 25 -50
c13 -27 35 -60 49 -72z m-258 15 c-3 -8 -6 -5 -6 6 -1 11 2 17 5 13 3 -3 4
-12 1 -19z m-530 -62 c32 -40 39 -72 24 -111 -5 -11 -4 -27 0 -35 12 -22 42
-160 37 -166 -3 -2 -20 12 -38 32 -22 25 -30 43 -27 58 17 69 17 73 5 44 -7
-16 -15 -28 -19 -28 -4 0 -13 24 -19 53 -12 51 -9 79 16 142 4 12 3 17 -2 12
-5 -5 -14 -23 -21 -40 -11 -29 -11 -26 -12 43 0 62 2 72 12 56 7 -10 27 -37
44 -60z m879 -3 c-9 -9 -35 11 -45 35 l-13 27 31 -29 c17 -16 29 -31 27 -33z
m-459 0 c-3 -10 -5 -4 -5 12 0 17 2 24 5 18 2 -7 2 -21 0 -30z m-269 -56 c11
-19 27 -47 37 -63 18 -28 17 -27 -18 6 -20 19 -39 47 -42 63 -9 36 -1 34 23
-6z m788 -18 c11 -19 -29 7 -51 32 l-20 23 32 -23 c18 -12 35 -27 39 -32z
m-496 -26 c16 -81 65 -241 89 -285 10 -21 16 -38 12 -38 -13 0 -67 120 -95
208 -22 71 -35 172 -22 172 3 0 10 -26 16 -57z m-348 3 c15 -13 32 -43 38 -67
19 -76 61 -180 121 -301 32 -65 55 -118 51 -118 -5 0 -26 19 -48 43 -59 61
-120 174 -83 151 13 -8 13 -6 -22 61 -38 74 -103 255 -91 255 4 0 19 -11 34
-24z m453 -231 c16 -33 55 -88 88 -123 33 -34 58 -64 56 -66 -2 -1 -19 1 -37
6 -56 15 -117 126 -166 300 -24 84 -18 93 8 13 12 -38 35 -97 51 -130z m-424
-15 c8 -19 26 -60 41 -90 31 -62 30 -75 -1 -31 -30 42 -112 265 -110 301 0 8
13 -21 28 -65 15 -44 34 -96 42 -115z m422 155 c5 0 25 -38 45 -86 20 -47 54
-113 74 -147 20 -34 34 -62 30 -62 -10 0 -84 78 -109 115 -20 29 -73 165 -73
186 0 6 6 7 13 2 6 -4 16 -8 20 -8z m-114 -35 c0 -10 -3 -8 -9 5 -12 27 -12
43 0 25 5 -8 9 -22 9 -30z m240 -147 c28 -57 49 -103 47 -103 -12 0 -106 177
-106 198 0 21 2 19 59 -95z m-549 -63 c23 -44 27 -65 7 -35 -17 26 -38 75 -32
75 3 0 14 -18 25 -40z m750 -6 c0 -8 -4 -12 -10 -9 -5 3 -10 13 -10 21 0 8 5
12 10 9 6 -3 10 -13 10 -21z m55 -44 c3 -5 -1 -22 -8 -37 l-15 -27 -16 31
c-20 39 -12 67 14 53 11 -6 22 -14 25 -20z m-41 -58 c12 -23 13 -37 4 -70 -11
-46 -15 -48 -43 -29 -17 13 -17 16 0 70 10 32 19 57 21 57 2 0 10 -13 18 -28z
m-89 -65 c11 -15 20 -32 19 -37 -1 -6 -2 -17 -2 -26 -3 -22 -22 -7 -22 17 0
10 -4 19 -8 19 -4 0 -15 21 -25 48 -16 45 -16 46 1 26 9 -11 26 -33 37 -47z
m-467 -21 c41 -21 41 -38 0 -34 -25 2 -39 13 -67 53 l-35 50 35 -26 c19 -14
49 -34 67 -43z m617 -3 c16 -21 44 -55 64 -77 34 -36 34 -38 11 -31 -14 4 -49
18 -77 32 -55 25 -61 37 -47 91 9 31 17 28 49 -15z m-560 -63 c18 -20 18 -20
-13 -9 -38 13 -51 29 -24 29 10 0 27 -9 37 -20z m310 -182 c4 -24 14 -60 21
-82 22 -62 8 -55 -21 10 -35 79 -42 114 -22 114 10 0 18 -14 22 -42z"/>
<path d="M2380 1401 c0 -5 9 -19 21 -32 11 -13 18 -17 15 -9 -3 8 -9 23 -12
33 -7 18 -24 24 -24 8z"/>
<path d="M4218 2943 c6 -2 18 -2 25 0 6 3 1 5 -13 5 -14 0 -19 -2 -12 -5z"/>
<path d="M4890 2943 c-108 -10 -140 -15 -140 -22 0 -4 21 -4 48 0 26 4 68 8
94 8 26 1 50 6 53 11 3 6 0 9 -7 8 -7 0 -29 -3 -48 -5z"/>
<path d="M3381 2921 c-12 -8 -12 -12 2 -25 8 -9 21 -16 28 -16 10 0 10 3 2 11
-6 6 -9 18 -6 25 6 16 -5 18 -26 5z"/>
<path d="M3130 2910 c0 -5 5 -10 11 -10 5 0 7 5 4 10 -3 6 -8 10 -11 10 -2 0
-4 -4 -4 -10z"/>
<path d="M924 2878 l-17 -33 26 28 c32 33 40 34 60 5 9 -13 16 -18 16 -11 1
18 -28 43 -49 43 -12 0 -26 -13 -36 -32z"/>
<path d="M4418 2903 c6 -2 18 -2 25 0 6 3 1 5 -13 5 -14 0 -19 -2 -12 -5z"/>
<path d="M5171 2891 c-9 -6 1 -11 33 -15 26 -4 62 -14 81 -22 40 -16 56 -18
35 -3 -11 7 -3 8 30 3 73 -10 42 3 -45 20 -44 8 -89 18 -100 21 -11 3 -26 1
-34 -4z"/>
<path d="M2131 2856 c-20 -21 -21 -24 -5 -30 10 -4 22 -2 28 4 5 5 17 10 26
10 10 0 8 -6 -10 -20 -31 -24 -19 -26 18 -3 l27 17 -19 -22 c-19 -22 -10 -32
11 -11 5 5 27 11 47 12 43 2 42 18 -2 31 -18 5 -32 13 -32 17 0 15 -37 10 -54
-6 -23 -23 -42 -19 -21 5 26 28 13 25 -14 -4z"/>
<path d="M4615 2854 c-7 -8 -11 -22 -8 -33 3 -10 0 -22 -6 -25 -13 -8 -15 -46
-3 -46 5 0 15 21 23 47 9 29 22 49 32 51 15 3 15 0 2 -31 l-14 -34 140 1 c128
1 172 8 117 19 l-23 4 23 8 c23 8 29 20 14 29 -5 3 -25 1 -45 -5 -27 -7 -50
-6 -89 5 -78 22 -147 26 -163 10z m85 -19 c-7 -8 -17 -15 -22 -15 -6 0 -5 7 2
15 7 8 17 15 22 15 6 0 5 -7 -2 -15z m40 1 c0 -3 -4 -8 -10 -11 -5 -3 -10 -1
-10 4 0 6 5 11 10 11 6 0 10 -2 10 -4z"/>
<path d="M3415 2820 c10 -11 20 -20 23 -20 3 0 -3 9 -13 20 -10 11 -20 20 -23
20 -3 0 3 -9 13 -20z"/>
<path d="M4567 2813 c-8 -15 -18 -39 -21 -53 -7 -24 -7 -25 9 -5 28 35 46 73
35 80 -5 3 -16 -7 -23 -22z"/>
<path d="M3754 2815 c11 -8 27 -15 35 -15 10 1 7 6 -9 15 -33 19 -50 18 -26 0z"/>
<path d="M2283 2803 c-20 -3 -33 -10 -33 -19 0 -17 4 -17 53 -3 34 9 54 31 25
27 -7 0 -28 -3 -45 -5z"/>
<path d="M3160 2775 c-7 -13 -31 -33 -54 -45 -23 -11 -30 -17 -16 -14 64 18
94 8 50 -16 -11 -6 -20 -16 -20 -22 0 -16 49 32 64 62 13 25 11 60 -3 60 -4 0
-14 -11 -21 -25z"/>
<path d="M3490 2766 c0 -3 9 -10 20 -16 11 -6 20 -8 20 -6 0 3 -9 10 -20 16
-11 6 -20 8 -20 6z"/>
<path d="M2270 2740 c-12 -8 -11 -10 8 -10 12 0 22 5 22 10 0 13 -11 13 -30 0z"/>
<path d="M2405 2710 c-8 -13 15 -13 35 0 12 8 11 10 -7 10 -12 0 -25 -4 -28
-10z"/>
<path d="M4843 2713 c9 -2 23 -2 30 0 6 3 -1 5 -18 5 -16 0 -22 -2 -12 -5z"/>
<path d="M830 2699 c0 -5 5 -7 10 -4 6 3 10 8 10 11 0 2 -4 4 -10 4 -5 0 -10
-5 -10 -11z"/>
<path d="M1190 2690 c-6 -11 -8 -20 -6 -20 3 0 10 9 16 20 6 11 8 20 6 20 -3
0 -10 -9 -16 -20z"/>
<path d="M2672 2637 c27 -40 54 -82 58 -93 9 -22 44 -32 88 -26 29 4 18 22
-14 22 -14 0 -22 4 -19 10 3 6 -4 10 -18 10 -25 0 -70 47 -100 106 -9 17 -23
34 -31 37 -7 3 9 -27 36 -66z"/>
<path d="M951 2582 c-47 -96 -109 -205 -178 -314 -12 -21 -23 -42 -23 -48 0
-19 24 12 44 55 11 22 38 72 61 110 49 81 158 295 153 301 -2 2 -28 -45 -57
-104z"/>
<path d="M2457 2683 c-3 -3 1 -12 9 -20 8 -9 18 -13 21 -10 3 3 -1 13 -10 21
-8 8 -17 12 -20 9z"/>
<path d="M3788 2653 c7 -3 16 -2 19 1 4 3 -2 6 -13 5 -11 0 -14 -3 -6 -6z"/>
<path d="M4408 2643 c7 -3 16 -2 19 1 4 3 -2 6 -13 5 -11 0 -14 -3 -6 -6z"/>
<path d="M1926 2600 c-8 -20 -15 -28 -18 -19 -11 30 -17 0 -9 -42 5 -24 9 -35
10 -24 1 11 10 40 21 64 11 24 18 46 15 49 -2 3 -11 -10 -19 -28z"/>
<path d="M4605 2610 c-8 -13 5 -13 25 0 13 8 13 10 -2 10 -9 0 -20 -4 -23 -10z"/>
<path d="M4540 2600 c-11 -8 -7 -9 15 -4 37 8 45 14 19 14 -10 0 -26 -5 -34
-10z"/>
<path d="M2386 2587 c3 -10 9 -15 12 -12 3 3 0 11 -7 18 -10 9 -11 8 -5 -6z"/>
<path d="M1095 2534 c-9 -14 -15 -27 -13 -30 2 -2 12 10 22 26 21 37 15 40 -9
4z"/>
<path d="M1933 2490 c0 -25 2 -35 4 -22 2 12 2 32 0 45 -2 12 -4 2 -4 -23z"/>
<path d="M2930 2510 c-13 -8 -13 -10 2 -10 9 0 20 5 23 10 8 13 -5 13 -25 0z"/>
<path d="M1885 2445 c-11 -68 -12 -71 -29 -145 -8 -36 -15 -78 -15 -95 1 -27
17 42 50 203 5 29 9 61 7 70 -2 9 -8 -5 -13 -33z"/>
<path d="M1835 2363 c-3 -10 -8 -49 -10 -88 l-4 -70 8 60 c5 33 12 72 16 88 8
30 1 37 -10 10z"/>
<path d="M1906 2363 c-6 -14 -5 -15 5 -6 7 7 10 15 7 18 -3 3 -9 -2 -12 -12z"/>
<path d="M723 2350 c-10 -13 -31 -38 -46 -56 -31 -36 -91 -153 -83 -161 3 -3
17 20 32 50 19 38 35 58 51 62 13 3 23 10 23 16 0 6 -4 7 -10 4 -16 -10 -11
11 5 25 24 20 58 70 52 77 -3 2 -14 -5 -24 -17z"/>
<path d="M734 2263 c-15 -16 -47 -56 -72 -90 -25 -35 -51 -63 -57 -63 -16 0
-62 51 -68 75 -4 15 -5 14 -6 -7 0 -15 -5 -30 -11 -33 -5 -3 -10 -14 -9 -23 0
-13 3 -12 11 5 l11 22 28 -23 c16 -13 33 -26 39 -28 10 -3 -79 -169 -100 -188
-3 -3 -11 -18 -18 -33 -7 -15 -17 -25 -22 -22 -5 3 -7 0 -4 -8 3 -8 -9 -43
-26 -77 -17 -34 -30 -64 -28 -66 3 -2 20 28 38 66 36 75 57 87 80 45 12 -23 9
-29 -56 -112 -75 -94 -88 -113 -80 -113 3 0 39 45 81 100 43 55 81 97 87 94
13 -8 58 4 58 17 0 6 -7 6 -21 -1 -18 -10 -20 -9 -17 7 2 12 11 17 28 16 15
-1 18 0 8 3 -24 7 -23 23 5 53 21 24 21 25 1 8 -14 -12 -24 -14 -27 -7 -3 6
-4 5 -3 -2 1 -7 -1 -17 -6 -23 -5 -5 -15 -18 -22 -29 -12 -18 -14 -16 -36 19
l-23 37 23 41 c13 23 41 70 62 104 36 56 42 62 69 59 16 -2 29 1 29 5 0 5 -9
9 -20 9 -36 0 -20 33 68 138 46 54 50 73 6 25z m-234 -403 c0 -5 -5 -10 -11
-10 -5 0 -7 5 -4 10 3 6 8 10 11 10 2 0 4 -4 4 -10z"/>
<path d="M2965 2220 c10 -11 20 -20 23 -20 3 0 -3 9 -13 20 -10 11 -20 20 -23
20 -3 0 3 -9 13 -20z"/>
<path d="M1816 2118 c-3 -13 -5 -61 -5 -108 1 -70 3 -79 10 -50 5 19 6 56 3
81 -3 29 -1 49 5 54 13 7 15 45 2 45 -5 0 -11 -10 -15 -22z"/>
<path d="M1592 2110 c0 -14 2 -19 5 -12 2 6 2 18 0 25 -3 6 -5 1 -5 -13z"/>
<path d="M1902 2100 c0 -14 2 -19 5 -12 2 6 2 18 0 25 -3 6 -5 1 -5 -13z"/>
<path d="M495 2083 c-10 -24 -14 -43 -9 -43 7 0 25 52 21 57 -3 2 -8 -4 -12
-14z"/>
<path d="M728 2030 c-21 -27 -38 -51 -38 -55 0 -4 18 16 41 45 22 28 39 53 37
55 -1 1 -20 -19 -40 -45z"/>
<path d="M1892 2035 c0 -16 2 -22 5 -12 2 9 2 23 0 30 -3 6 -5 -1 -5 -18z"/>
<path d="M487 2013 c-4 -3 -6 -27 -6 -52 l2 -46 7 50 c8 53 7 59 -3 48z"/>
<path d="M3423 2013 c9 -2 25 -2 35 0 9 3 1 5 -18 5 -19 0 -27 -2 -17 -5z"/>
<path d="M3305 1990 c3 -5 8 -10 11 -10 2 0 4 5 4 10 0 6 -5 10 -11 10 -5 0
-7 -4 -4 -10z"/>
<path d="M1882 1965 c0 -16 2 -22 5 -12 2 9 2 23 0 30 -3 6 -5 -1 -5 -18z"/>
<path d="M1911 1974 c0 -11 3 -14 6 -6 3 7 2 16 -1 19 -3 4 -6 -2 -5 -13z"/>
<path d="M3365 1970 c11 -5 27 -9 35 -9 9 0 8 4 -5 9 -11 5 -27 9 -35 9 -9 0
-8 -4 5 -9z"/>
<path d="M661 1947 c-13 -21 -12 -21 5 -5 10 10 16 20 13 22 -3 3 -11 -5 -18
-17z"/>
<path d="M3566 1948 c-3 -13 -5 -57 -4 -98 l1 -75 6 85 c4 47 10 91 14 98 5 6
4 12 -1 12 -5 0 -12 -10 -16 -22z"/>
<path d="M3433 1925 c0 -22 2 -30 4 -17 2 12 2 30 0 40 -3 9 -5 -1 -4 -23z"/>
<path d="M3810 1931 c0 -17 5 -33 11 -37 8 -4 9 0 4 15 -11 34 8 25 64 -34 33
-34 61 -55 75 -54 20 0 20 1 -3 10 -14 5 -49 37 -79 69 -29 33 -58 60 -63 60
-5 0 -9 -13 -9 -29z"/>
<path d="M3512 1910 c0 -19 2 -27 5 -17 2 9 2 25 0 35 -3 9 -5 1 -5 -18z"/>
<path d="M1871 1904 c0 -11 3 -14 6 -6 3 7 2 16 -1 19 -3 4 -6 -2 -5 -13z"/>
<path d="M672 1857 c-17 -25 -32 -48 -32 -51 0 -3 -32 -74 -71 -158 -78 -168
-111 -265 -129 -382 -14 -84 -9 -221 9 -255 22 -40 -10 -23 -70 40 -39 41 -65
78 -79 117 -20 52 -21 65 -12 152 5 52 12 104 16 115 3 11 -1 4 -11 -15 -12
-26 -17 -63 -17 -140 -1 -95 2 -110 26 -155 28 -55 111 -138 155 -157 41 -17
62 -38 56 -54 -4 -10 3 -14 26 -14 17 0 31 -2 31 -4 0 -2 -12 -35 -26 -72 -33
-85 -37 -191 -10 -242 10 -19 20 -32 23 -29 2 3 -1 16 -8 29 -32 57 -4 276 37
292 8 3 12 11 9 16 -8 14 67 144 108 187 17 18 28 36 24 39 -9 9 -56 -46 -93
-109 -32 -55 -46 -63 -99 -53 -44 9 -69 50 -84 137 -12 69 -2 190 20 254 6 17
13 44 15 60 10 65 168 411 206 452 11 12 18 27 16 33 -2 6 -18 -9 -36 -33z"/>
<path d="M405 1870 c3 -5 14 -10 23 -10 15 0 15 2 2 10 -20 13 -33 13 -25 0z"/>
<path d="M846 1868 c-7 -21 -26 -329 -25 -383 2 -49 5 -21 23 200 3 39 9 98
12 133 4 34 4 62 0 62 -4 0 -8 -6 -10 -12z"/>
<path d="M1821 1844 c0 -11 3 -14 6 -6 3 7 2 16 -1 19 -3 4 -6 -2 -5 -13z"/>
<path d="M1863 1805 c0 -22 2 -30 4 -17 2 12 2 30 0 40 -3 9 -5 -1 -4 -23z"/>
<path d="M730 1821 c0 -5 5 -13 10 -16 6 -3 10 -2 10 4 0 5 -4 13 -10 16 -5 3
-10 2 -10 -4z"/>
<path d="M381 1779 c-6 -18 -9 -34 -7 -36 2 -2 9 10 15 28 6 18 9 34 7 36 -2
2 -9 -10 -15 -28z"/>
<path d="M1812 1775 c0 -16 2 -22 5 -12 2 9 2 23 0 30 -3 6 -5 -1 -5 -18z"/>
<path d="M3572 1745 c0 -11 4 -33 8 -50 7 -27 8 -27 8 -5 0 14 -4 36 -8 50 -6
20 -8 21 -8 5z"/>
<path d="M361 1713 c-1 -6 -4 -20 -7 -30 -5 -17 -5 -17 6 0 6 10 9 23 6 30 -3
9 -5 9 -5 0z"/>
<path d="M537 1703 c-4 -3 -7 -16 -6 -27 0 -19 1 -19 10 3 10 24 8 36 -4 24z"/>
<path d="M1852 1680 c0 -14 2 -19 5 -12 2 6 2 18 0 25 -3 6 -5 1 -5 -13z"/>
<path d="M386 1673 c-6 -14 -5 -15 5 -6 7 7 10 15 7 18 -3 3 -9 -2 -12 -12z"/>
<path d="M1821 1674 c0 -11 3 -14 6 -6 3 7 2 16 -1 19 -3 4 -6 -2 -5 -13z"/>
<path d="M3595 1630 c3 -19 25 -77 50 -128 25 -50 45 -97 45 -104 0 -6 3 -8 7
-5 3 4 13 1 22 -5 13 -10 13 -9 -1 7 -9 11 -25 38 -35 60 -10 22 -27 52 -37
67 -10 15 -27 54 -37 85 -13 38 -18 46 -14 23z"/>
<path d="M362 1630 c-7 -11 -12 -28 -12 -37 1 -10 7 -3 16 16 16 38 14 50 -4
21z"/>
<path d="M1852 1615 c0 -16 2 -22 5 -12 2 9 2 23 0 30 -3 6 -5 -1 -5 -18z"/>
<path d="M3641 1594 c0 -11 3 -14 6 -6 3 7 2 16 -1 19 -3 4 -6 -2 -5 -13z"/>
<path d="M358 1573 c-9 -2 -20 -14 -24 -26 -4 -12 -17 -35 -30 -50 -13 -16
-24 -34 -24 -40 0 -7 5 -4 11 7 9 15 13 16 20 5 6 -10 9 -8 9 8 0 12 7 28 15
37 8 8 15 18 15 22 0 4 7 16 17 26 9 10 14 17 12 17 -2 -1 -12 -3 -21 -6z"/>
<path d="M1844 1555 c-3 -8 -1 -43 4 -77 l10 -63 -1 77 c-1 43 -3 78 -5 78 -1
0 -5 -7 -8 -15z"/>
<path d="M1891 1554 c0 -11 3 -14 6 -6 3 7 2 16 -1 19 -3 4 -6 -2 -5 -13z"/>
<path d="M340 1439 c0 -35 5 -71 10 -79 6 -10 7 11 3 60 -7 94 -13 103 -13 19z"/>
<path d="M1931 1454 c0 -11 3 -14 6 -6 3 7 2 16 -1 19 -3 4 -6 -2 -5 -13z"/>
<path d="M814 1330 c0 -58 1 -81 3 -52 2 28 2 76 0 105 -2 28 -3 5 -3 -53z"/>
<path d="M3431 1413 c1 -10 -1 -25 -5 -35 -8 -18 11 -61 57 -126 31 -43 179
-152 207 -152 8 0 -15 18 -52 40 -67 40 -158 122 -158 142 0 6 25 -12 55 -41
52 -49 122 -90 155 -91 23 0 -1 16 -43 30 -76 24 -197 165 -197 230 0 11 -5
20 -11 20 -5 0 -9 -8 -8 -17z m45 -120 c-6 -6 -36 52 -36 69 1 7 10 -4 21 -25
11 -22 18 -41 15 -44z"/>
<path d="M1942 1395 c0 -16 2 -22 5 -12 2 9 2 23 0 30 -3 6 -5 -1 -5 -18z"/>
<path d="M1971 1404 c0 -11 3 -14 6 -6 3 7 2 16 -1 19 -3 4 -6 -2 -5 -13z"/>
<path d="M1283 1375 c0 -22 2 -30 4 -17 2 12 2 30 0 40 -3 9 -5 -1 -4 -23z"/>
<path d="M1861 1390 c0 -14 7 -61 15 -105 9 -44 18 -120 20 -170 2 -49 8 -110
13 -135 7 -33 8 -15 4 65 -3 61 -2 106 3 102 4 -4 7 -24 7 -45 l-1 -37 9 35
c10 39 4 76 -17 120 -8 16 -19 51 -24 77 -5 26 -13 64 -18 83 -8 29 -10 31
-11 10z"/>
<path d="M1922 1385 c0 -16 2 -22 5 -12 2 9 2 23 0 30 -3 6 -5 -1 -5 -18z"/>
<path d="M210 1370 c-12 -16 -19 -30 -16 -30 2 0 14 14 26 30 12 17 19 30 16
30 -2 0 -14 -13 -26 -30z"/>
<path d="M3700 1374 c0 -14 46 -64 60 -64 5 0 10 5 10 10 0 6 -6 10 -14 10 -8
0 -24 12 -35 28 -11 15 -21 22 -21 16z"/>
<path d="M1987 1335 c3 -22 10 -49 14 -60 6 -13 6 -5 2 20 -3 22 -10 49 -14
60 -6 13 -6 5 -2 -20z"/>
<path d="M3042 1335 c0 -16 2 -22 5 -12 2 9 2 23 0 30 -3 6 -5 -1 -5 -18z"/>
<path d="M1913 1295 c0 -22 2 -30 4 -17 2 12 2 30 0 40 -3 9 -5 -1 -4 -23z"/>
<path d="M1933 1285 c0 -22 2 -30 4 -17 2 12 2 30 0 40 -3 9 -5 -1 -4 -23z"/>
<path d="M2071 1304 c0 -11 3 -14 6 -6 3 7 2 16 -1 19 -3 4 -6 -2 -5 -13z"/>
<path d="M3051 1290 c-1 -22 25 -114 37 -136 6 -11 11 -17 11 -14 0 15 -48
163 -48 150z"/>
<path d="M2141 1274 c0 -11 3 -14 6 -6 3 7 2 16 -1 19 -3 4 -6 -2 -5 -13z"/>
<path d="M2056 1244 c-4 -20 -5 -38 -3 -40 3 -3 8 11 11 32 4 20 5 38 3 40 -3
3 -8 -11 -11 -32z"/>
<path d="M2191 1264 c0 -11 3 -14 6 -6 3 7 2 16 -1 19 -3 4 -6 -2 -5 -13z"/>
<path d="M2151 1234 c0 -11 3 -14 6 -6 3 7 2 16 -1 19 -3 4 -6 -2 -5 -13z"/>
<path d="M300 1237 c0 -4 7 -21 15 -36 15 -31 34 -41 68 -40 16 0 13 4 -13 13
-19 7 -42 26 -52 42 -10 16 -18 25 -18 21z"/>
<path d="M1602 1210 c0 -19 2 -27 5 -17 2 9 2 25 0 35 -3 9 -5 1 -5 -18z"/>
<path d="M105 1209 c-4 -6 -5 -12 -2 -15 2 -3 7 2 10 11 7 17 1 20 -8 4z"/>
<path d="M2160 1191 c0 -11 5 -23 10 -26 6 -4 10 5 10 19 0 14 -4 26 -10 26
-5 0 -10 -9 -10 -19z"/>
<path d="M1282 1170 c0 -14 2 -19 5 -12 2 6 2 18 0 25 -3 6 -5 1 -5 -13z"/>
<path d="M2041 1174 c0 -11 3 -14 6 -6 3 7 2 16 -1 19 -3 4 -6 -2 -5 -13z"/>
<path d="M2081 1174 c0 -11 3 -14 6 -6 3 7 2 16 -1 19 -3 4 -6 -2 -5 -13z"/>
<path d="M3180 1156 c-6 -9 -10 -21 -8 -28 3 -8 9 -4 17 10 15 28 9 39 -9 18z"/>
<path d="M2071 1134 c0 -11 3 -14 6 -6 3 7 2 16 -1 19 -3 4 -6 -2 -5 -13z"/>
<path d="M41 1104 c-12 -20 -20 -38 -18 -40 2 -2 14 14 26 36 28 50 21 53 -8
4z"/>
<path d="M2020 1076 c-7 -36 -10 -71 -8 -78 2 -6 10 21 17 61 15 92 8 105 -9
17z"/>
<path d="M3263 1133 c-15 -5 -17 -23 -4 -23 5 0 11 7 15 15 3 8 4 15 3 14 -1
0 -8 -3 -14 -6z"/>
<path d="M812 1100 c0 -14 2 -19 5 -12 2 6 2 18 0 25 -3 6 -5 1 -5 -13z"/>
<path d="M2194 1075 c0 -14 4 -25 9 -25 10 0 9 38 -2 44 -5 3 -8 -5 -7 -19z"/>
<path d="M3260 1082 c0 -31 91 -93 168 -117 12 -3 22 -2 22 3 0 6 -10 12 -23
16 -45 11 -120 59 -136 88 -18 32 -31 36 -31 10z"/>
<path d="M812 1045 c0 -16 2 -22 5 -12 2 9 2 23 0 30 -3 6 -5 -1 -5 -18z"/>
<path d="M1961 1065 c0 -5 6 -21 14 -35 8 -14 14 -20 14 -15 0 6 -6 21 -14 35
-8 14 -14 21 -14 15z"/>
<path d="M2043 1035 c-3 -9 -3 -18 -1 -21 3 -3 8 4 11 16 6 23 -1 27 -10 5z"/>
<path d="M2211 1024 c0 -11 3 -14 6 -6 3 7 2 16 -1 19 -3 4 -6 -2 -5 -13z"/>
<path d="M2021 944 c-7 -30 -11 -57 -9 -60 3 -2 11 21 18 51 7 30 11 57 8 60
-3 3 -10 -20 -17 -51z"/>
<path d="M2227 970 c6 -38 10 -46 19 -38 3 3 -2 21 -10 39 l-15 34 6 -35z"/>
<path d="M1299 933 c-4 -139 3 -349 9 -303 l5 35 7 -35 c3 -19 6 15 6 76 -1
62 -5 107 -9 100 -5 -6 -6 31 -4 82 2 50 1 92 -4 92 -5 0 -10 -21 -10 -47z"/>
<path d="M1996 939 c-4 -23 -5 -44 -2 -46 2 -2 7 14 11 37 4 23 5 43 2 46 -2
3 -7 -14 -11 -37z"/>
<path d="M2060 873 c-13 -37 -29 -76 -38 -85 -14 -16 -13 -18 1 -18 11 0 24
24 42 81 14 45 24 84 21 86 -2 2 -14 -26 -26 -64z"/>
<path d="M1926 918 c-5 -10 -3 -46 4 -80 21 -114 26 -148 37 -273 5 -58 20
-84 50 -85 15 0 69 78 59 87 -3 3 -6 1 -6 -5 0 -20 -52 -74 -60 -62 -9 15 -1
50 11 50 5 0 9 7 9 15 0 8 -3 15 -7 15 -5 0 -16 20 -26 45 -20 47 -19 115 4
197 8 32 8 43 -3 49 -10 6 -15 -4 -19 -42 -12 -86 -19 -77 -37 46 -6 42 -11
55 -16 43z m69 -324 c10 -24 12 -42 6 -52 -10 -17 -9 -19 -26 63 -8 36 2 31
20 -11z"/>
<path d="M3151 913 c-1 -6 -4 -20 -7 -30 -5 -17 -5 -17 6 0 6 10 9 23 6 30 -3
9 -5 9 -5 0z"/>
<path d="M2260 887 c0 -4 18 -43 39 -86 46 -91 87 -131 136 -131 32 0 73 26
60 38 -3 3 -11 0 -17 -6 -7 -7 -28 -12 -48 -12 -46 0 -85 39 -133 135 -20 39
-36 67 -37 62z"/>
<path d="M3495 846 c17 -14 34 -26 39 -26 11 0 11 0 -34 29 l-35 23 30 -26z"/>
<path d="M1013 830 c-46 -45 -67 -130 -58 -244 11 -158 24 -235 56 -330 37
-106 107 -262 115 -254 3 3 -6 29 -21 58 -32 62 -100 248 -114 310 -6 25 -14
108 -17 185 -8 165 2 213 52 263 19 19 34 36 34 38 0 12 -20 1 -47 -26z"/>
<path d="M842 770 c0 -19 2 -27 5 -17 2 9 2 25 0 35 -3 9 -5 1 -5 -18z"/>
<path d="M2086 753 c-9 -26 -12 -43 -7 -38 11 13 32 77 27 82 -2 2 -11 -17
-20 -44z"/>
<path d="M1241 736 c-42 -23 -50 -53 -51 -177 0 -210 54 -338 200 -468 33 -30
60 -59 60 -64 0 -6 -7 -2 -15 9 -11 14 -14 15 -15 4 0 -8 4 -19 8 -25 10 -14
74 -15 68 -1 -42 100 -62 155 -81 226 -27 102 -40 182 -25 160 13 -19 12 -6
-1 50 -6 25 -11 71 -10 103 0 33 -4 57 -10 57 -6 0 -8 -45 -5 -132 5 -133 19
-208 66 -342 11 -33 18 -61 16 -63 -2 -2 -15 10 -29 27 -15 17 -29 30 -32 30
-3 0 -9 0 -14 0 -16 0 -92 110 -121 174 -31 69 -44 151 -44 277 0 93 14 131
54 144 11 3 20 11 20 16 0 12 -10 11 -39 -5z"/>
<path d="M852 695 c0 -16 2 -22 5 -12 2 9 2 23 0 30 -3 6 -5 -1 -5 -18z"/>
<path d="M2056 675 c-9 -26 -7 -32 5 -12 6 10 9 21 6 23 -2 3 -7 -2 -11 -11z"/>
<path d="M2120 669 c-7 -11 -10 -23 -7 -25 2 -2 9 7 15 21 14 30 7 33 -8 4z"/>
<path d="M861 634 c0 -11 3 -14 6 -6 3 7 2 16 -1 19 -3 4 -6 -2 -5 -13z"/>
<path d="M1313 540 c0 -30 2 -43 4 -27 2 15 2 39 0 55 -2 15 -4 2 -4 -28z"/>
<path d="M3091 574 c0 -11 3 -14 6 -6 3 7 2 16 -1 19 -3 4 -6 -2 -5 -13z"/>
<path d="M1332 560 c0 -14 2 -19 5 -12 2 6 2 18 0 25 -3 6 -5 1 -5 -13z"/>
<path d="M1941 560 c-1 -14 -4 -36 -6 -50 l-6 -25 11 25 c6 13 9 36 7 50 l-4
25 -2 -25z"/>
<path d="M3122 540 c0 -14 2 -19 5 -12 2 6 2 18 0 25 -3 6 -5 1 -5 -13z"/>
<path d="M3083 475 c0 -27 2 -38 4 -22 2 15 2 37 0 50 -2 12 -4 0 -4 -28z"/>
<path d="M1007 503 c-4 -3 -7 -11 -7 -17 0 -6 5 -5 12 2 6 6 9 14 7 17 -3 3
-9 2 -12 -2z"/>
<path d="M1322 440 c0 -19 2 -27 5 -17 2 9 2 25 0 35 -3 9 -5 1 -5 -18z"/>
<path d="M1990 460 c0 -8 5 -22 10 -30 9 -13 10 -13 10 0 0 8 -5 22 -10 30 -9
13 -10 13 -10 0z"/>
<path d="M1442 425 c0 -22 6 -58 14 -80 9 -27 12 -30 8 -10 -4 17 -10 53 -14
80 -7 48 -8 49 -8 10z"/>
<path d="M3202 400 c0 -14 2 -19 5 -12 2 6 2 18 0 25 -3 6 -5 1 -5 -13z"/>
<path d="M2010 405 c0 -5 5 -17 10 -25 5 -8 10 -10 10 -5 0 6 -5 17 -10 25 -5
8 -10 11 -10 5z"/>
<path d="M921 384 c0 -11 3 -14 6 -6 3 7 2 16 -1 19 -3 4 -6 -2 -5 -13z"/>
<path d="M3091 390 c0 -8 4 -22 9 -30 12 -18 12 -2 0 25 -6 13 -9 15 -9 5z"/>
<path d="M1332 360 c0 -14 2 -19 5 -12 2 6 2 18 0 25 -3 6 -5 1 -5 -13z"/>
<path d="M1400 370 c0 -8 5 -22 10 -30 9 -13 10 -13 10 0 0 8 -5 22 -10 30 -9
13 -10 13 -10 0z"/>
<path d="M3131 364 c0 -11 3 -14 6 -6 3 7 2 16 -1 19 -3 4 -6 -2 -5 -13z"/>
<path d="M2035 316 c15 -76 18 -86 25 -86 5 0 2 21 -6 48 -18 59 -26 76 -19
38z"/>
<path d="M3141 324 c0 -11 3 -14 6 -6 3 7 2 16 -1 19 -3 4 -6 -2 -5 -13z"/>
<path d="M1421 315 c1 -19 18 -51 18 -35 0 8 -4 22 -9 30 -5 8 -9 11 -9 5z"/>
<path d="M1470 294 c0 -7 7 -27 15 -45 8 -19 14 -29 15 -23 0 7 -7 27 -15 45
-8 19 -14 29 -15 23z"/>
<path d="M3151 290 c-1 -22 42 -93 59 -98 10 -3 7 4 -7 19 -12 13 -29 40 -37
59 -8 19 -15 28 -15 20z"/>
<path d="M960 261 c0 -11 4 -22 9 -25 4 -3 6 6 3 19 -5 30 -12 33 -12 6z"/>
<path d="M1446 240 c3 -14 11 -32 16 -40 6 -10 7 -7 2 10 -3 14 -11 32 -16 40
-6 10 -7 7 -2 -10z"/>
<path d="M2125 240 c3 -5 11 -10 16 -10 6 0 7 5 4 10 -3 6 -11 10 -16 10 -6 0
-7 -4 -4 -10z"/>
<path d="M981 215 c0 -5 6 -21 14 -35 8 -14 14 -20 14 -15 0 6 -6 21 -14 35
-8 14 -14 21 -14 15z"/>
<path d="M1504 185 c14 -58 68 -185 78 -185 7 0 7 4 1 13 -6 6 -25 52 -43 102
-34 94 -48 121 -36 70z"/>
<path d="M1470 178 c0 -2 12 -33 26 -69 15 -35 30 -75 35 -88 5 -13 12 -22 14
-19 3 2 -11 42 -31 88 -33 78 -44 101 -44 88z"/>
<path d="M2230 165 c0 -2 18 -13 40 -24 22 -10 40 -15 40 -10 0 5 -2 9 -4 9
-2 0 -20 7 -40 15 -20 8 -36 13 -36 10z"/>
<path d="M1010 146 c0 -13 79 -146 86 -146 5 0 -18 43 -68 125 -10 17 -18 26
-18 21z"/>
<path d="M2033 75 c16 -15 31 -25 33 -22 3 3 -10 15 -28 27 l-33 23 28 -28z"/>
<path d="M797 61 c-4 -17 -3 -21 5 -13 5 5 8 16 6 23 -3 8 -7 3 -11 -10z"/>
</g>
</svg>
